<svg width="12" height="12" viewBox="0 0 12 12" fill="none" xmlns="http://www.w3.org/2000/svg">
<path d="M10.7031 8.00598C10.6575 7.98775 10.498 7.92167 10.2246 7.80774C9.95117 7.69381 9.65494 7.56848 9.33593 7.43176C9.01692 7.29504 8.7207 7.16972 8.44726 7.05579C8.17382 6.94185 8.01432 6.87577 7.96874 6.85754C7.73176 6.77551 7.59049 6.66842 7.54492 6.53625C7.49934 6.40409 7.51757 6.22864 7.5996 6.00989C7.71809 5.73645 7.8343 5.45846 7.94824 5.1759C8.06217 4.89335 8.16926 4.6108 8.26952 4.32825C8.43359 3.8634 8.49967 3.40084 8.46777 2.94055C8.43587 2.48027 8.30598 2.03137 8.07812 1.59387C7.85025 1.15637 7.55175 0.825969 7.18261 0.602661C6.81347 0.379354 6.38281 0.272258 5.89062 0.281372C5.39843 0.290486 4.98372 0.418091 4.64648 0.664185C4.30924 0.910278 4.04492 1.25663 3.85351 1.70325C3.68033 2.1134 3.57096 2.52812 3.52538 2.94739C3.47981 3.36666 3.5345 3.78593 3.68945 4.2052C3.78059 4.47864 3.88313 4.7498 3.99706 5.01868C4.111 5.28756 4.21809 5.55872 4.31835 5.83215C4.36393 5.96887 4.39811 6.10103 4.42089 6.22864C4.44368 6.35624 4.46419 6.46562 4.48242 6.55676C4.12695 6.72994 3.77831 6.89856 3.43652 7.06262C3.09472 7.22668 2.7552 7.38847 2.41796 7.54797C2.08072 7.70748 1.74804 7.86698 1.41992 8.02649C1.09179 8.18599 0.763666 8.34778 0.435541 8.51184C0.371739 8.5483 0.303379 8.59843 0.230463 8.66223C0.157546 8.72603 0.121088 8.78984 0.121088 8.85364C0.102858 9.19999 0.0960225 9.5509 0.10058 9.90637C0.105137 10.2618 0.107416 10.6264 0.107416 11.0001C0.481114 11.0001 1.09635 11.0001 1.95312 11.0001C2.80989 11.0001 3.71451 11.0001 4.66699 11.0001C5.61946 11.0001 6.52408 11.0001 7.38085 11.0001C8.23762 11.0001 8.85286 11.0001 9.22656 11.0001L10.7031 8.00598ZM11.373 8.27942C11.1907 8.2065 11.0107 8.13131 10.833 8.05383C10.6553 7.97636 10.4753 7.90116 10.293 7.82825L7.09374 11.0275C7.48567 11.0275 7.87988 11.0275 8.27636 11.0275C8.67284 11.0275 9.07161 11.0275 9.47265 11.0275C9.87369 11.0275 10.2747 11.0275 10.6758 11.0275C11.0768 11.0275 11.4779 11.0275 11.8789 11.0275C11.8789 10.6993 11.8766 10.3735 11.8721 10.0499C11.8675 9.72636 11.8743 9.40507 11.8926 9.08606C11.9017 8.87642 11.8629 8.71008 11.7764 8.58704C11.6898 8.46399 11.5553 8.36145 11.373 8.27942Z" fill="#F5B754"/>
</svg>
