<svg width="10" height="13" viewBox="0 0 10 13" fill="none" xmlns="http://www.w3.org/2000/svg">
<path d="M4.30273 4.97357C4.30273 5.50221 4.30273 6.02858 4.30273 6.55267C4.30273 7.07676 4.30273 7.60313 4.30273 8.13177C4.30273 8.16823 4.30957 8.20241 4.32324 8.23431C4.33691 8.26621 4.35742 8.29583 4.38477 8.32318C4.62175 8.53281 4.80859 8.76979 4.94531 9.03411C5.08203 9.29844 5.15951 9.59466 5.17773 9.92279C5.20508 10.4332 5.04557 10.9117 4.69922 11.3583C4.35287 11.8049 3.92904 12.0784 3.42773 12.1786C2.80794 12.2971 2.24512 12.1809 1.73926 11.83C1.2334 11.4791 0.939454 10.9892 0.857423 10.3603C0.793621 9.94102 0.8278 9.55592 0.959962 9.20501C1.09212 8.8541 1.31771 8.54193 1.63672 8.26849C1.65495 8.25026 1.6709 8.22292 1.68457 8.18646C1.69824 8.15 1.70508 8.1181 1.70508 8.09075C1.70508 7.58034 1.70508 7.06536 1.70508 6.54583C1.70508 6.0263 1.70508 5.50905 1.70508 4.99408C1.70508 4.4791 1.70508 3.96413 1.70508 3.44915C1.70508 2.93418 1.70508 2.41693 1.70508 1.8974C1.70508 1.62396 1.75977 1.38242 1.86914 1.17279C1.97852 0.963151 2.15625 0.794531 2.40234 0.666927C2.83073 0.448177 3.25456 0.45957 3.67383 0.701107C4.0931 0.942643 4.30273 1.32773 4.30273 1.85638C4.30273 2.37591 4.30273 2.89544 4.30273 3.41497C4.30273 3.93451 4.30273 4.45404 4.30273 4.97357ZM2.4707 3.00482C2.4707 3.03216 2.4707 3.05723 2.4707 3.08001C2.4707 3.1028 2.4707 3.12786 2.4707 3.15521C2.4707 3.59271 2.4707 4.03249 2.4707 4.47454C2.4707 4.9166 2.4707 5.36094 2.4707 5.80755C2.4707 6.25417 2.4707 6.6985 2.4707 7.14056C2.4707 7.58262 2.4707 8.0224 2.4707 8.4599C2.4707 8.54193 2.45703 8.60801 2.42969 8.65814C2.40234 8.70827 2.35677 8.75612 2.29297 8.80169C2.03776 8.96575 1.85547 9.16855 1.74609 9.41009C1.63672 9.65163 1.60026 9.92734 1.63672 10.2372C1.68229 10.6109 1.86458 10.914 2.18359 11.1464C2.5026 11.3788 2.8444 11.4586 3.20898 11.3857C3.60091 11.3128 3.90397 11.1077 4.11816 10.7704C4.33236 10.4332 4.39388 10.0686 4.30273 9.67669C4.25716 9.48529 4.18197 9.31667 4.07715 9.17083C3.97233 9.025 3.83789 8.90195 3.67383 8.80169C3.60091 8.76523 3.55078 8.71966 3.52344 8.66497C3.49609 8.61029 3.48242 8.54193 3.48242 8.4599C3.48242 8.0224 3.48242 7.58262 3.48242 7.14056C3.48242 6.6985 3.48242 6.25645 3.48242 5.81439C3.48242 5.37233 3.48242 4.93027 3.48242 4.48822C3.48242 4.04616 3.48242 3.60638 3.48242 3.16888C3.48242 3.14154 3.48242 3.11419 3.48242 3.08685C3.48242 3.05951 3.48242 3.03216 3.48242 3.00482C3.30925 3.00482 3.14063 3.00482 2.97656 3.00482C2.8125 3.00482 2.64388 3.00482 2.4707 3.00482ZM8.60938 2.41693C8.70964 2.44427 8.80534 2.46934 8.89648 2.49212C8.98763 2.51491 9.07422 2.53997 9.15625 2.56732C9.12891 2.82253 9.01953 3.04128 8.82812 3.22357C8.63672 3.40586 8.41797 3.50156 8.17188 3.51068C8.08984 3.51068 8.00553 3.51068 7.91895 3.51068C7.83236 3.51068 7.74805 3.50156 7.66602 3.48333C7.42904 3.42865 7.22396 3.29876 7.05078 3.09369C6.8776 2.88861 6.77279 2.65846 6.73633 2.40326C6.70898 2.22096 6.69987 2.04323 6.70898 1.87005C6.7181 1.69687 6.75456 1.5237 6.81836 1.35052C6.91862 1.06797 7.09863 0.849218 7.3584 0.694271C7.61816 0.539323 7.90755 0.484635 8.22656 0.530209C8.46354 0.557552 8.65723 0.635026 8.80762 0.76263C8.95801 0.890234 9.06966 1.06341 9.14258 1.28216C9.14258 1.29128 9.14486 1.30039 9.14941 1.30951C9.15397 1.31862 9.15625 1.32773 9.15625 1.33685C9.15625 1.34596 9.15853 1.35508 9.16309 1.36419C9.16764 1.37331 9.16992 1.38698 9.16992 1.40521C9.07878 1.42344 8.98763 1.44167 8.89648 1.4599C8.80534 1.47812 8.72331 1.49635 8.65039 1.51458C8.60482 1.4599 8.5638 1.40293 8.52734 1.34369C8.49089 1.28444 8.44531 1.23203 8.39062 1.18646C8.24479 1.04974 8.07161 1.00189 7.87109 1.0429C7.67057 1.08392 7.52474 1.19557 7.43359 1.37786C7.36979 1.50547 7.33106 1.63763 7.31738 1.77435C7.30371 1.91107 7.30143 2.04779 7.31055 2.18451C7.31966 2.26654 7.33333 2.34629 7.35156 2.42376C7.36979 2.50124 7.39258 2.58099 7.41992 2.66302C7.4655 2.79062 7.54069 2.88405 7.64551 2.94329C7.75033 3.00254 7.87109 3.03216 8.00781 3.03216C8.11719 3.03216 8.21973 2.9957 8.31543 2.92279C8.41113 2.84987 8.48177 2.75417 8.52734 2.63568C8.54557 2.59922 8.56152 2.56276 8.5752 2.5263C8.58887 2.48984 8.60026 2.45339 8.60938 2.41693ZM6.42188 1.25482C6.42188 1.44622 6.38086 1.60573 6.29883 1.73333C6.2168 1.86094 6.10287 1.94753 5.95703 1.9931C5.75651 2.04779 5.57194 2.02272 5.40332 1.9179C5.2347 1.81309 5.13672 1.6513 5.10938 1.43255C5.09115 1.31406 5.09115 1.19557 5.10938 1.07708C5.1276 0.958593 5.17318 0.853776 5.24609 0.76263C5.34635 0.64414 5.45801 0.568945 5.58106 0.537045C5.7041 0.505143 5.83398 0.507421 5.9707 0.54388C6.08919 0.580338 6.18945 0.650976 6.27148 0.755795C6.35352 0.860612 6.39909 0.976823 6.4082 1.10443C6.41732 1.13177 6.42188 1.15911 6.42188 1.18646C6.42188 1.2138 6.42188 1.23659 6.42188 1.25482ZM6.01172 1.25482C6.01172 1.22747 6.00944 1.19102 6.00488 1.14544C6.00033 1.09987 5.98893 1.05885 5.9707 1.0224C5.96159 0.967709 5.9388 0.924414 5.90234 0.892513C5.86589 0.860612 5.82031 0.844662 5.76563 0.844662C5.72005 0.844662 5.66992 0.86289 5.61523 0.899349C5.56055 0.935807 5.5332 0.976823 5.5332 1.0224C5.52409 1.11354 5.51953 1.20013 5.51953 1.28216C5.51953 1.36419 5.52865 1.44622 5.54688 1.52826C5.5651 1.6194 5.61296 1.67409 5.69043 1.69232C5.7679 1.71055 5.8431 1.69232 5.91602 1.63763C5.9707 1.59206 6.00033 1.53737 6.00488 1.47357C6.00944 1.40977 6.01172 1.33685 6.01172 1.25482Z" fill="#F5B754"/>
</svg>
