<svg width="100" height="95" viewBox="0 0 100 95" fill="none" xmlns="http://www.w3.org/2000/svg">
<path d="M82.5 67.9836C78.75 71.7336 76.25 75.1711 75 78.2961C73.75 81.4211 71.25 82.9836 67.5 82.9836C63.75 82.9836 60 81.4211 56.25 78.2961C52.5 75.1711 48.75 71.7336 45 67.9836C41.25 64.2336 37.8125 60.4836 34.6875 56.7336C31.5625 52.9836 30 49.2336 30 45.4836C30 41.7336 31.5625 39.2336 34.6875 37.9836C37.8125 36.7336 41.25 34.2336 45 30.4836C46.875 28.6086 47.1094 25.9915 45.7031 22.6321C44.2969 19.2727 42.1875 15.9524 39.375 12.6711C36.5625 9.38989 33.5156 6.53833 30.2344 4.11646C26.9531 1.69458 24.375 0.483643 22.5 0.483643C20.625 0.483643 18.3984 1.65552 15.8203 3.99927C13.2422 6.34302 10.7812 8.92114 8.4375 11.7336C6.09375 14.5461 4.10156 17.1243 2.46094 19.468C0.820312 21.8118 0 22.9836 0 22.9836C0 26.7336 0.878906 31.2844 2.63672 36.636C4.39453 41.9875 6.69922 47.4954 9.55078 53.1594C12.4023 58.8235 15.6055 64.2922 19.1602 69.5657C22.7148 74.8391 26.3281 79.3118 30 82.9836C33.6719 86.6555 38.1445 90.2688 43.418 93.8235C48.6914 97.3782 54.1602 100.581 59.8242 103.433C65.4883 106.284 70.9961 108.589 76.3477 110.347C81.6992 112.105 86.25 112.984 90 112.984C90 112.984 91.1719 112.163 93.5156 110.523C95.8594 108.882 98.4375 106.89 101.25 104.546C104.062 102.202 106.641 99.7415 108.984 97.1633C111.328 94.5852 112.5 92.3586 112.5 90.4836C112.5 88.6086 111.289 86.0305 108.867 82.7493C106.445 79.468 103.594 76.4211 100.312 73.6086C97.0312 70.7961 93.7109 68.6868 90.3516 67.2805C86.9922 65.8743 84.375 66.1086 82.5 67.9836Z" fill="black" fill-opacity="0.2"/>
</svg>
