<svg width="100" height="102" viewBox="0 0 100 102" fill="none" xmlns="http://www.w3.org/2000/svg">
<g opacity="0.2">
<path d="M61.1719 1.30005C28.125 1.30005 1.17188 28.2532 1.17188 61.3C1.17188 94.3469 28.125 121.3 61.1719 121.3C94.2188 121.3 121.172 94.3469 121.172 61.3C121.172 28.2532 94.2188 1.30005 61.1719 1.30005ZM61.1719 114.269C31.875 114.269 8.20312 90.5969 8.20312 61.3C8.20312 32.0032 31.875 8.3313 61.1719 8.3313C90.4688 8.3313 114.141 32.0032 114.141 61.3C114.141 90.5969 90.4688 114.269 61.1719 114.269ZM98.9062 64.8157V71.8469H56.4844V36.6907H63.5156V64.8157H98.9062Z" fill="black" fill-opacity="0.15"/>
</g>
</svg>
