<svg width="12" height="12" viewBox="0 0 12 12" fill="none" xmlns="http://www.w3.org/2000/svg">
<path d="M11.5371 0.736694C11.5371 1.64815 11.5371 2.55733 11.5371 3.46423C11.5371 4.37113 11.5371 5.27576 11.5371 6.1781C11.5371 7.08044 11.5371 7.98507 11.5371 8.89197C11.5371 9.79887 11.5371 10.708 11.5371 11.6195C11.5006 11.6195 11.4642 11.6195 11.4277 11.6195C11.3913 11.6195 11.3594 11.6195 11.332 11.6195C10.6575 11.6195 9.98534 11.6195 9.31542 11.6195C8.6455 11.6195 7.97558 11.6195 7.30565 11.6195C6.63573 11.6195 5.96353 11.6195 5.28905 11.6195C4.61457 11.6195 3.94465 11.6195 3.27929 11.6195C3.2246 11.6195 3.1813 11.6104 3.1494 11.5922C3.1175 11.5739 3.08788 11.542 3.06054 11.4965C2.8509 11.1136 2.63899 10.7308 2.42479 10.348C2.2106 9.96521 1.99641 9.58012 1.78222 9.19275C1.56802 8.80538 1.35383 8.42029 1.13964 8.03748C0.925446 7.65466 0.713531 7.27185 0.503896 6.88904C0.485667 6.86169 0.474274 6.82979 0.469716 6.79333C0.465159 6.75688 0.467438 6.72953 0.476552 6.7113C0.667959 6.26469 0.857086 5.82035 1.04394 5.3783C1.23078 4.93624 1.43358 4.50102 1.65233 4.07263C1.88931 3.62602 2.15819 3.22498 2.45897 2.86951C2.75976 2.51404 3.09472 2.20186 3.46386 1.93298C3.833 1.6641 4.23404 1.43852 4.66698 1.25623C5.09992 1.07393 5.56705 0.937215 6.06835 0.846069C6.25976 0.809611 6.45116 0.782268 6.64257 0.764038C6.83397 0.745809 7.02994 0.736694 7.23046 0.736694C7.92317 0.736694 8.61588 0.736694 9.30858 0.736694C10.0013 0.736694 10.694 0.736694 11.3867 0.736694C11.4049 0.736694 11.4277 0.736694 11.4551 0.736694C11.4824 0.736694 11.5098 0.736694 11.5371 0.736694ZM10.9082 1.37927C10.8808 1.37927 10.8603 1.37927 10.8467 1.37927C10.833 1.37927 10.817 1.37927 10.7988 1.37927C10.179 1.37927 9.56151 1.37927 8.94628 1.37927C8.33104 1.37927 7.71809 1.38383 7.10741 1.39294C6.97069 1.39294 6.8317 1.39522 6.69042 1.39978C6.54914 1.40434 6.41015 1.42029 6.27343 1.44763C5.79035 1.53878 5.34146 1.67094 4.92675 1.84412C4.51203 2.01729 4.12922 2.23604 3.77831 2.50037C3.4274 2.76469 3.11067 3.07458 2.82811 3.43005C2.54556 3.78552 2.29491 4.18201 2.07616 4.61951C1.92121 4.95675 1.77082 5.29626 1.62499 5.63806C1.47916 5.97986 1.32877 6.31938 1.17382 6.65662C1.1647 6.68396 1.16242 6.71586 1.16698 6.75232C1.17154 6.78878 1.18293 6.82068 1.20116 6.84802C1.38345 7.18526 1.56802 7.5225 1.75487 7.85974C1.94172 8.19698 2.12857 8.53194 2.31542 8.86462C2.50227 9.19731 2.68912 9.53227 2.87597 9.86951C3.06282 10.2067 3.24739 10.544 3.42968 10.8812C3.45702 10.9268 3.48436 10.9564 3.51171 10.9701C3.53905 10.9838 3.57551 10.9906 3.62108 10.9906C4.22265 10.9906 4.81965 10.9906 5.4121 10.9906C6.00455 10.9906 6.59927 10.9906 7.19628 10.9906C7.79328 10.9906 8.38801 10.9906 8.98046 10.9906C9.57291 10.9906 10.1699 10.9906 10.7715 10.9906C10.7897 10.9906 10.8102 10.9906 10.833 10.9906C10.8558 10.9906 10.8808 10.9906 10.9082 10.9906C10.9082 10.1885 10.9082 9.38871 10.9082 8.59119C10.9082 7.79366 10.9082 6.99386 10.9082 6.19177C10.9082 5.38969 10.9082 4.58761 10.9082 3.78552C10.9082 2.98344 10.9082 2.18136 10.9082 1.37927ZM1.98046 6.42419C2.01692 6.34216 2.0511 6.26241 2.083 6.18494C2.1149 6.10746 2.14908 6.02771 2.18554 5.94568C2.27668 5.73604 2.37011 5.52869 2.46581 5.32361C2.56151 5.11853 2.65494 4.91117 2.74608 4.70154C3.03775 4.02706 3.43879 3.48474 3.94921 3.07458C4.45963 2.66443 5.06574 2.36821 5.76757 2.18591C5.98632 2.12211 6.20735 2.07882 6.43065 2.05603C6.65396 2.03324 6.87955 2.02185 7.10741 2.02185C7.60871 2.02185 8.11229 2.02185 8.61815 2.02185C9.12401 2.02185 9.62759 2.02185 10.1289 2.02185C10.1471 2.02185 10.1676 2.02185 10.1904 2.02185C10.2132 2.02185 10.2337 2.02185 10.2519 2.02185C10.2519 2.38643 10.2519 2.7533 10.2519 3.12244C10.2519 3.49158 10.2519 3.86072 10.2519 4.22986C10.2519 4.599 10.2519 4.96586 10.2519 5.33044C10.2519 5.69503 10.2519 6.05961 10.2519 6.42419C9.56835 6.42419 8.88248 6.42419 8.19433 6.42419C7.50618 6.42419 6.81574 6.42419 6.12304 6.42419C5.43033 6.42419 4.7399 6.42419 4.05175 6.42419C3.3636 6.42419 2.67317 6.42419 1.98046 6.42419ZM9.63671 2.65076C9.60937 2.65076 9.5843 2.65076 9.56151 2.65076C9.53873 2.65076 9.51366 2.65076 9.48632 2.65076C9.10351 2.65076 8.71841 2.64848 8.33104 2.64392C7.94368 2.63936 7.55858 2.64164 7.17577 2.65076C7.01171 2.65076 6.84765 2.65759 6.68358 2.67126C6.51952 2.68494 6.35546 2.70544 6.1914 2.73279C5.74478 2.81482 5.32779 2.96065 4.94042 3.17029C4.55305 3.37992 4.20442 3.66248 3.89452 4.01794C3.67577 4.28227 3.49804 4.5671 3.36132 4.87244C3.2246 5.17777 3.08788 5.48539 2.95116 5.79529C2.95116 5.79529 2.95344 5.79757 2.958 5.80212C2.96255 5.80668 2.96483 5.81352 2.96483 5.82263C3.52082 5.82263 4.07681 5.82263 4.6328 5.82263C5.18879 5.82263 5.74478 5.82263 6.30077 5.82263C6.85676 5.82263 7.41275 5.82263 7.96874 5.82263C8.52473 5.82263 9.08072 5.82263 9.63671 5.82263C9.63671 5.29399 9.63671 4.76534 9.63671 4.23669C9.63671 3.70805 9.63671 3.1794 9.63671 2.65076ZM9.45897 8.10583C9.37694 8.10583 9.29491 8.10583 9.21288 8.10583C9.13085 8.10583 9.05338 8.10583 8.98046 8.10583C8.8802 8.10583 8.79817 8.07393 8.73437 8.01013C8.67056 7.94633 8.63866 7.87341 8.63866 7.79138C8.63866 7.70024 8.66828 7.62504 8.72753 7.5658C8.78677 7.50655 8.86653 7.47693 8.96679 7.47693C9.13085 7.47693 9.29491 7.47693 9.45897 7.47693C9.62304 7.47693 9.7871 7.47693 9.95116 7.47693C10.0423 7.47693 10.1198 7.50655 10.1836 7.5658C10.2474 7.62504 10.2793 7.70024 10.2793 7.79138C10.2793 7.88253 10.2497 7.95772 10.1904 8.01697C10.1312 8.07621 10.0514 8.10583 9.95116 8.10583C9.86913 8.10583 9.7871 8.10583 9.70507 8.10583C9.62304 8.10583 9.54101 8.10583 9.45897 8.10583Z" fill="#F5B754"/>
</svg>
