<svg width="100" height="83" viewBox="0 0 100 83" fill="none" xmlns="http://www.w3.org/2000/svg">
<path d="M0 83.8743V30.6711C1.95312 32.8586 4.21875 34.8118 6.79688 36.5305C22.9688 47.468 34.0625 55.1633 40.0781 59.6165C42.5781 61.4915 44.6484 62.9368 46.2891 63.9524C47.8516 65.0461 49.9609 66.1399 52.6172 67.2336C55.1953 68.3274 57.6172 68.8743 59.8828 68.8743H60.1172C62.3828 68.8743 64.8047 68.3274 67.3828 67.2336C70.0391 66.1399 72.1484 65.0461 73.7109 63.9524C75.3516 62.9368 77.4219 61.4915 79.9219 59.6165C87.5 54.1477 98.6328 46.4524 113.32 36.5305C115.82 34.7336 118.047 32.7805 120 30.6711V83.8743C120 86.7649 118.945 89.2649 116.836 91.3743C114.727 93.4836 112.227 94.5383 109.336 94.5383H10.6641C7.77344 94.5383 5.27344 93.4836 3.16406 91.3743C1.05469 89.2649 0 86.7649 0 83.8743ZM0 12.5071C0 8.99146 0.9375 6.06177 2.8125 3.71802C4.60938 1.45239 7.22656 0.31958 10.6641 0.31958H109.336C112.227 0.31958 114.727 1.33521 116.836 3.36646C118.945 5.47583 120 8.01489 120 10.9836C120 14.4993 118.906 17.8586 116.719 21.0618C114.531 24.2649 111.797 27.0383 108.516 29.3821C91.7188 41.0227 81.2891 48.2493 77.2266 51.0618C76.7578 51.3743 75.8203 52.0774 74.4141 53.1711C72.9297 54.1868 71.7188 55.0071 70.7812 55.6321C69.7656 56.3352 68.5938 57.0774 67.2656 57.8586C65.9375 58.6399 64.6484 59.2258 63.3984 59.6165C62.2266 60.0852 61.1328 60.3196 60.1172 60.3196H59.8828C58.8672 60.3196 57.7734 60.0852 56.6016 59.6165C55.3516 59.2258 54.0625 58.6399 52.7344 57.8586C51.4062 57.0774 50.2344 56.3352 49.2188 55.6321C48.2812 55.0071 47.0703 54.1868 45.5859 53.1711C44.1797 52.0774 43.2422 51.3743 42.7734 51.0618C38.7109 48.2493 32.8516 44.1868 25.1953 38.8743C17.6172 33.5618 13.0469 30.3977 11.4844 29.3821C8.75 27.5071 6.13281 24.929 3.63281 21.6477C1.21094 18.3665 0 15.3196 0 12.5071Z" fill="black" fill-opacity="0.15"/>
</svg>
