<svg width="35" height="28" viewBox="0 0 35 28" fill="none" xmlns="http://www.w3.org/2000/svg">
<path d="M0 24.48V8.9624C0.569661 9.60042 1.23047 10.1701 1.98242 10.6714C6.69922 13.8615 9.9349 16.106 11.6895 17.4048C12.4186 17.9517 13.0225 18.3732 13.501 18.6694C13.9567 18.9884 14.5719 19.3075 15.3467 19.6265C16.0986 19.9455 16.805 20.105 17.4658 20.105H17.5342C18.195 20.105 18.9014 19.9455 19.6533 19.6265C20.4281 19.3075 21.0433 18.9884 21.499 18.6694C21.9775 18.3732 22.5814 17.9517 23.3105 17.4048C25.5208 15.8097 28.7679 13.5653 33.0518 10.6714C33.7809 10.1473 34.4303 9.57764 35 8.9624V24.48C35 25.3231 34.6924 26.0522 34.0771 26.6675C33.4619 27.2827 32.7327 27.5903 31.8896 27.5903H3.11035C2.26725 27.5903 1.53809 27.2827 0.922852 26.6675C0.307617 26.0522 0 25.3231 0 24.48ZM0 3.66455C0 2.63916 0.273438 1.78467 0.820312 1.10107C1.3444 0.440268 2.10775 0.109863 3.11035 0.109863H31.8896C32.7327 0.109863 33.4619 0.406088 34.0771 0.998535C34.6924 1.61377 35 2.35433 35 3.22021C35 4.24561 34.681 5.22542 34.043 6.15967C33.4049 7.09391 32.6074 7.90283 31.6504 8.58643C26.7513 11.9816 23.7093 14.0894 22.5244 14.9097C22.3877 15.0008 22.1143 15.2059 21.7041 15.5249C21.2712 15.8211 20.918 16.0604 20.6445 16.2427C20.3483 16.4478 20.0065 16.6642 19.6191 16.8921C19.2318 17.12 18.8558 17.2909 18.4912 17.4048C18.1494 17.5415 17.8304 17.6099 17.5342 17.6099H17.4658C17.1696 17.6099 16.8506 17.5415 16.5088 17.4048C16.1442 17.2909 15.7682 17.12 15.3809 16.8921C14.9935 16.6642 14.6517 16.4478 14.3555 16.2427C14.082 16.0604 13.7288 15.8211 13.2959 15.5249C12.8857 15.2059 12.6123 15.0008 12.4756 14.9097C11.2907 14.0894 9.58171 12.9045 7.34863 11.355C5.13835 9.8055 3.80534 8.88265 3.34961 8.58643C2.55208 8.03955 1.78874 7.2876 1.05957 6.33057C0.35319 5.37354 0 4.48486 0 3.66455Z" fill="#F5B754"/>
</svg>
