<svg width="85" height="103" viewBox="0 0 85 103" fill="none" xmlns="http://www.w3.org/2000/svg">
<path d="M45 67.5461C51.1719 67.5461 56.4648 65.3391 60.8789 60.925C65.293 56.511 67.5 51.218 67.5 45.0461C67.5 38.7961 65.293 33.4836 60.8789 29.1086C56.4648 24.7336 51.1719 22.5461 45 22.5461C38.8281 22.5461 33.5352 24.7336 29.1211 29.1086C24.707 33.4836 22.5 38.7961 22.5 45.0461C22.5 51.218 24.707 56.511 29.1211 60.925C33.5352 65.3391 38.8281 67.5461 45 67.5461ZM45 26.2961C50.1562 26.2961 54.5703 28.1321 58.2422 31.804C61.9141 35.4758 63.75 39.8899 63.75 45.0461C63.75 50.2024 61.9141 54.6165 58.2422 58.2883C54.5703 61.9602 50.1562 63.7961 45 63.7961C39.8438 63.7961 35.4297 61.9602 31.7578 58.2883C28.0859 54.6165 26.25 50.2024 26.25 45.0461C26.25 39.8899 28.0859 35.4758 31.7578 31.804C35.4297 28.1321 39.8438 26.2961 45 26.2961ZM45 0.983643C38.8281 0.983643 33.0078 2.15552 27.5391 4.49927C22.0703 6.84302 17.2852 10.0461 13.1836 14.1086C9.08203 18.1711 5.85938 22.9368 3.51562 28.4055C1.17188 33.8743 0 39.7336 0 45.9836C0 52.5461 1.25 59.1086 3.75 65.6711C6.25 72.2336 9.43359 78.6008 13.3008 84.7727C17.168 90.9446 21.3867 96.843 25.957 102.468C30.5273 108.093 34.8438 113.249 38.9062 117.937C38.9062 118.015 39.4922 118.542 40.6641 119.519C41.8359 120.495 43.2422 120.984 44.8828 120.984C44.8828 120.984 44.9219 120.984 45 120.984C45.0781 120.984 45.1172 120.984 45.1172 120.984C46.7578 120.984 48.1641 120.495 49.3359 119.519C50.5078 118.542 51.0938 118.015 51.0938 117.937C55.2344 113.249 59.5703 108.093 64.1016 102.468C68.6328 96.843 72.832 90.9446 76.6992 84.7727C80.5664 78.6008 83.75 72.2336 86.25 65.6711C88.75 59.1086 90 52.5461 90 45.9836C90 39.7336 88.8281 33.8743 86.4844 28.4055C84.1406 22.9368 80.918 18.1711 76.8164 14.1086C72.7148 10.0461 67.9297 6.84302 62.4609 4.49927C56.9922 2.15552 51.1719 0.983643 45 0.983643ZM45.4688 113.015C45.3906 113.093 45.3125 113.171 45.2344 113.249C45.1562 113.327 45.0391 113.366 44.8828 113.366C44.8828 113.366 44.8242 113.308 44.707 113.191C44.5898 113.073 44.4922 112.976 44.4141 112.898C40.9766 108.991 37.1289 104.441 32.8711 99.2454C28.6133 94.05 24.6094 88.5227 20.8594 82.6633C17.1094 76.804 13.9453 70.7493 11.3672 64.4993C8.78906 58.2493 7.5 52.0774 7.5 45.9836C7.5 40.8274 8.47656 35.9641 10.4297 31.3938C12.3828 26.8235 15.0586 22.8391 18.457 19.4407C21.8555 16.0422 25.8398 13.3665 30.4102 11.4133C34.9805 9.46021 39.8438 8.48364 45 8.48364C50.1562 8.48364 55.0195 9.46021 59.5898 11.4133C64.1602 13.3665 68.1445 16.0422 71.543 19.4407C74.9414 22.8391 77.6172 26.8235 79.5703 31.3938C81.5234 35.9641 82.5 40.8274 82.5 45.9836C82.5 52.0774 81.2109 58.2493 78.6328 64.4993C76.0547 70.7493 72.8906 76.804 69.1406 82.6633C65.3906 88.5227 61.3672 94.05 57.0703 99.2454C52.7734 104.441 48.9062 109.031 45.4688 113.015Z" fill="black" fill-opacity="0.15"/>
</svg>
