<svg width="36" height="35" viewBox="0 0 36 35" fill="none" xmlns="http://www.w3.org/2000/svg">
<path d="M17.8418 0C8.20312 0 0.341797 7.86133 0.341797 17.5C0.341797 27.1387 8.20312 35 17.8418 35C27.4805 35 35.3418 27.1387 35.3418 17.5C35.3418 7.86133 27.4805 0 17.8418 0ZM17.8418 32.9492C9.29688 32.9492 2.39258 26.0449 2.39258 17.5C2.39258 8.95508 9.29688 2.05078 17.8418 2.05078C26.3867 2.05078 33.291 8.95508 33.291 17.5C33.291 26.0449 26.3867 32.9492 17.8418 32.9492ZM28.8477 18.5254V20.5762H16.4746V10.3223H18.5254V18.5254H28.8477Z" fill="#F5B754"/>
</svg>
