<svg width="22" height="22" viewBox="0 0 22 22" fill="none" xmlns="http://www.w3.org/2000/svg">
<path d="M0.700012 17.8291V8.51855C1.04181 8.90137 1.43829 9.24316 1.88947 9.54395C4.71954 11.458 6.66095 12.8047 7.71368 13.584C8.15118 13.9121 8.51349 14.165 8.8006 14.3428C9.07404 14.5342 9.44318 14.7256 9.90802 14.917C10.3592 15.1084 10.783 15.2041 11.1795 15.2041H11.2205C11.617 15.2041 12.0408 15.1084 12.492 14.917C12.9568 14.7256 13.326 14.5342 13.5994 14.3428C13.8865 14.165 14.2488 13.9121 14.6863 13.584C16.0125 12.627 17.9608 11.2803 20.5311 9.54395C20.9686 9.22949 21.3582 8.8877 21.7 8.51855V17.8291C21.7 18.335 21.5154 18.7725 21.1463 19.1416C20.7772 19.5107 20.3397 19.6953 19.8338 19.6953H2.56622C2.06036 19.6953 1.62286 19.5107 1.25372 19.1416C0.884583 18.7725 0.700012 18.335 0.700012 17.8291ZM0.700012 5.33984C0.700012 4.72461 0.864075 4.21191 1.1922 3.80176C1.50665 3.40527 1.96466 3.20703 2.56622 3.20703H19.8338C20.3397 3.20703 20.7772 3.38477 21.1463 3.74023C21.5154 4.10938 21.7 4.55371 21.7 5.07324C21.7 5.68848 21.5086 6.27637 21.1258 6.83691C20.743 7.39746 20.2645 7.88281 19.6902 8.29297C16.7508 10.3301 14.9256 11.5947 14.2147 12.0869C14.1326 12.1416 13.9686 12.2646 13.7225 12.4561C13.4627 12.6338 13.2508 12.7773 13.0867 12.8867C12.909 13.0098 12.7039 13.1396 12.4715 13.2764C12.2391 13.4131 12.0135 13.5156 11.7947 13.584C11.5897 13.666 11.3983 13.707 11.2205 13.707H11.1795C11.0018 13.707 10.8104 13.666 10.6053 13.584C10.3865 13.5156 10.1609 13.4131 9.92853 13.2764C9.69611 13.1396 9.49103 13.0098 9.31329 12.8867C9.14923 12.7773 8.93732 12.6338 8.67755 12.4561C8.43146 12.2646 8.2674 12.1416 8.18536 12.0869C7.47443 11.5947 6.44904 10.8838 5.10919 9.9541C3.78302 9.02441 2.98322 8.4707 2.70978 8.29297C2.23126 7.96484 1.77325 7.51367 1.33575 6.93945C0.911926 6.36523 0.700012 5.83203 0.700012 5.33984Z" fill="#1B1B1B"/>
</svg>
