<svg width="14" height="15" viewBox="0 0 14 15" fill="none" xmlns="http://www.w3.org/2000/svg">
<path d="M12.5371 1.57666C12.5371 2.48812 12.5371 3.3973 12.5371 4.3042C12.5371 5.2111 12.5371 6.11572 12.5371 7.01807C12.5371 7.92041 12.5371 8.82503 12.5371 9.73193C12.5371 10.6388 12.5371 11.548 12.5371 12.4595C12.5007 12.4595 12.4642 12.4595 12.4277 12.4595C12.3913 12.4595 12.3594 12.4595 12.332 12.4595C11.6576 12.4595 10.9854 12.4595 10.3154 12.4595C9.64551 12.4595 8.97559 12.4595 8.30567 12.4595C7.63575 12.4595 6.96355 12.4595 6.28907 12.4595C5.61459 12.4595 4.94467 12.4595 4.2793 12.4595C4.22461 12.4595 4.18132 12.4504 4.14942 12.4321C4.11752 12.4139 4.0879 12.382 4.06055 12.3364C3.85092 11.9536 3.639 11.5708 3.42481 11.188C3.21062 10.8052 2.99642 10.4201 2.78223 10.0327C2.56804 9.64534 2.35385 9.26025 2.13965 8.87744C1.92546 8.49463 1.71355 8.11182 1.50391 7.729C1.48568 7.70166 1.47429 7.66976 1.46973 7.6333C1.46517 7.59684 1.46745 7.5695 1.47657 7.55127C1.66797 7.10465 1.8571 6.66032 2.04395 6.21826C2.2308 5.7762 2.4336 5.34098 2.65235 4.9126C2.88933 4.46598 3.15821 4.06494 3.45899 3.70947C3.75977 3.354 4.09473 3.04183 4.46387 2.77295C4.83301 2.50407 5.23405 2.27848 5.667 2.09619C6.09994 1.9139 6.56706 1.77718 7.06836 1.68604C7.25977 1.64958 7.45118 1.62223 7.64258 1.604C7.83399 1.58577 8.02995 1.57666 8.23047 1.57666C8.92318 1.57666 9.61589 1.57666 10.3086 1.57666C11.0013 1.57666 11.694 1.57666 12.3867 1.57666C12.405 1.57666 12.4277 1.57666 12.4551 1.57666C12.4824 1.57666 12.5098 1.57666 12.5371 1.57666ZM11.9082 2.21924C11.8809 2.21924 11.8604 2.21924 11.8467 2.21924C11.833 2.21924 11.8171 2.21924 11.7988 2.21924C11.179 2.21924 10.5615 2.21924 9.94629 2.21924C9.33106 2.21924 8.7181 2.2238 8.10743 2.23291C7.97071 2.23291 7.83171 2.23519 7.69043 2.23975C7.54916 2.2443 7.41016 2.26025 7.27344 2.2876C6.79037 2.37874 6.34148 2.51091 5.92676 2.68408C5.51205 2.85726 5.12924 3.07601 4.77833 3.34033C4.42741 3.60466 4.11068 3.91455 3.82813 4.27002C3.54558 4.62549 3.29493 5.02197 3.07618 5.45947C2.92123 5.79671 2.77084 6.13623 2.62501 6.47803C2.47917 6.81982 2.32878 7.15934 2.17383 7.49658C2.16472 7.52393 2.16244 7.55583 2.167 7.59229C2.17155 7.62874 2.18295 7.66064 2.20118 7.68799C2.38347 8.02523 2.56804 8.36247 2.75489 8.69971C2.94174 9.03695 3.12859 9.37191 3.31543 9.70459C3.50228 10.0373 3.68913 10.3722 3.87598 10.7095C4.06283 11.0467 4.2474 11.384 4.42969 11.7212C4.45704 11.7668 4.48438 11.7964 4.51172 11.8101C4.53907 11.8237 4.57553 11.8306 4.6211 11.8306C5.22266 11.8306 5.81967 11.8306 6.41211 11.8306C7.00456 11.8306 7.59929 11.8306 8.19629 11.8306C8.7933 11.8306 9.38803 11.8306 9.98047 11.8306C10.5729 11.8306 11.1699 11.8306 11.7715 11.8306C11.7897 11.8306 11.8102 11.8306 11.833 11.8306C11.8558 11.8306 11.8809 11.8306 11.9082 11.8306C11.9082 11.0285 11.9082 10.2287 11.9082 9.43115C11.9082 8.63363 11.9082 7.83382 11.9082 7.03174C11.9082 6.22965 11.9082 5.42757 11.9082 4.62549C11.9082 3.82341 11.9082 3.02132 11.9082 2.21924ZM2.98047 7.26416C3.01693 7.18213 3.05111 7.10238 3.08301 7.0249C3.11491 6.94743 3.14909 6.86768 3.18555 6.78564C3.2767 6.57601 3.37012 6.36865 3.46583 6.16357C3.56153 5.9585 3.65495 5.75114 3.7461 5.5415C4.03777 4.86702 4.43881 4.32471 4.94922 3.91455C5.45964 3.50439 6.06576 3.20817 6.76758 3.02588C6.98633 2.96208 7.20736 2.91878 7.43067 2.896C7.65398 2.87321 7.87956 2.86182 8.10743 2.86182C8.60873 2.86182 9.11231 2.86182 9.61817 2.86182C10.124 2.86182 10.6276 2.86182 11.1289 2.86182C11.1471 2.86182 11.1676 2.86182 11.1904 2.86182C11.2132 2.86182 11.2337 2.86182 11.252 2.86182C11.252 3.2264 11.252 3.59326 11.252 3.9624C11.252 4.33154 11.252 4.70068 11.252 5.06982C11.252 5.43896 11.252 5.80583 11.252 6.17041C11.252 6.53499 11.252 6.89958 11.252 7.26416C10.5684 7.26416 9.88249 7.26416 9.19434 7.26416C8.50619 7.26416 7.81576 7.26416 7.12305 7.26416C6.43034 7.26416 5.73991 7.26416 5.05176 7.26416C4.36361 7.26416 3.67318 7.26416 2.98047 7.26416ZM10.6367 3.49072C10.6094 3.49072 10.5843 3.49072 10.5615 3.49072C10.5387 3.49072 10.5137 3.49072 10.4863 3.49072C10.1035 3.49072 9.71843 3.48844 9.33106 3.48389C8.94369 3.47933 8.5586 3.48161 8.17579 3.49072C8.01172 3.49072 7.84766 3.49756 7.6836 3.51123C7.51954 3.5249 7.35547 3.54541 7.19141 3.57275C6.7448 3.65479 6.3278 3.80062 5.94043 4.01025C5.55306 4.21989 5.20443 4.50244 4.89454 4.85791C4.67579 5.12223 4.49805 5.40706 4.36133 5.7124C4.22461 6.01774 4.0879 6.32536 3.95118 6.63525C3.95118 6.63525 3.95346 6.63753 3.95801 6.64209C3.96257 6.64665 3.96485 6.65348 3.96485 6.6626C4.52084 6.6626 5.07683 6.6626 5.63282 6.6626C6.18881 6.6626 6.7448 6.6626 7.30079 6.6626C7.85678 6.6626 8.41277 6.6626 8.96876 6.6626C9.52474 6.6626 10.0807 6.6626 10.6367 6.6626C10.6367 6.13395 10.6367 5.60531 10.6367 5.07666C10.6367 4.54801 10.6367 4.01937 10.6367 3.49072ZM10.459 8.9458C10.377 8.9458 10.2949 8.9458 10.2129 8.9458C10.1309 8.9458 10.0534 8.9458 9.98047 8.9458C9.88021 8.9458 9.79818 8.9139 9.73438 8.8501C9.67058 8.7863 9.63868 8.71338 9.63868 8.63135C9.63868 8.5402 9.6683 8.46501 9.72754 8.40576C9.78679 8.34652 9.86654 8.31689 9.9668 8.31689C10.1309 8.31689 10.2949 8.31689 10.459 8.31689C10.6231 8.31689 10.7871 8.31689 10.9512 8.31689C11.0423 8.31689 11.1198 8.34652 11.1836 8.40576C11.2474 8.46501 11.2793 8.5402 11.2793 8.63135C11.2793 8.72249 11.2497 8.79769 11.1904 8.85693C11.1312 8.91618 11.0514 8.9458 10.9512 8.9458C10.8691 8.9458 10.7871 8.9458 10.7051 8.9458C10.6231 8.9458 10.541 8.9458 10.459 8.9458Z" fill="#F5B754"/>
</svg>
