<svg width="15" height="15" viewBox="0 0 15 15" fill="none" xmlns="http://www.w3.org/2000/svg">
<path d="M12.1731 9.35596C12.1276 9.33773 11.968 9.27165 11.6946 9.15771C11.4212 9.04378 11.125 8.91846 10.8059 8.78174C10.4869 8.64502 10.1907 8.51969 9.91727 8.40576C9.64383 8.29183 9.48433 8.22575 9.43875 8.20752C9.20177 8.12549 9.0605 8.01839 9.01492 7.88623C8.96935 7.75407 8.98758 7.57861 9.06961 7.35986C9.1881 7.08643 9.30431 6.80843 9.41824 6.52588C9.53218 6.24333 9.63927 5.96077 9.73953 5.67822C9.9036 5.21338 9.96968 4.75081 9.93778 4.29053C9.90588 3.83024 9.77599 3.38135 9.54813 2.94385C9.32026 2.50635 9.02176 2.17594 8.65262 1.95264C8.28348 1.72933 7.85282 1.62223 7.36063 1.63135C6.86844 1.64046 6.45373 1.76807 6.11649 2.01416C5.77925 2.26025 5.51492 2.60661 5.32352 3.05322C5.15034 3.46338 5.04097 3.87809 4.99539 4.29736C4.94982 4.71663 5.00451 5.1359 5.15946 5.55518C5.2506 5.82861 5.35314 6.09977 5.46707 6.36865C5.58101 6.63753 5.6881 6.90869 5.78836 7.18213C5.83394 7.31885 5.86811 7.45101 5.8909 7.57861C5.91369 7.70622 5.9342 7.81559 5.95242 7.90674C5.59696 8.07992 5.24832 8.24854 4.90653 8.4126C4.56473 8.57666 4.22521 8.73844 3.88797 8.89795C3.55073 9.05745 3.21805 9.21696 2.88992 9.37646C2.5618 9.53597 2.23367 9.69775 1.90555 9.86182C1.84175 9.89827 1.77339 9.94841 1.70047 10.0122C1.62755 10.076 1.5911 10.1398 1.5911 10.2036C1.57287 10.55 1.56603 10.9009 1.57059 11.2563C1.57515 11.6118 1.57742 11.9764 1.57742 12.3501C1.95112 12.3501 2.56636 12.3501 3.42313 12.3501C4.2799 12.3501 5.18452 12.3501 6.13699 12.3501C7.08947 12.3501 7.99409 12.3501 8.85086 12.3501C9.70763 12.3501 10.3229 12.3501 10.6966 12.3501L12.1731 9.35596ZM12.843 9.62939C12.6608 9.55648 12.4807 9.48128 12.303 9.40381C12.1253 9.32633 11.9453 9.25114 11.763 9.17822L8.56375 12.3774C8.95568 12.3774 9.34988 12.3774 9.74637 12.3774C10.1429 12.3774 10.5416 12.3774 10.9427 12.3774C11.3437 12.3774 11.7447 12.3774 12.1458 12.3774C12.5468 12.3774 12.9479 12.3774 13.3489 12.3774C13.3489 12.0493 13.3466 11.7235 13.3421 11.3999C13.3375 11.0763 13.3444 10.755 13.3626 10.436C13.3717 10.2264 13.333 10.0601 13.2464 9.93701C13.1598 9.81396 13.0253 9.71143 12.843 9.62939Z" fill="#F5B754"/>
</svg>
