<svg width="15" height="15" viewBox="0 0 15 15" fill="none" xmlns="http://www.w3.org/2000/svg">
<path d="M4.18509 6.64903C4.29446 6.64903 4.40384 6.64903 4.51321 6.64903C4.62259 6.64903 4.72741 6.64903 4.82767 6.64903C5.08288 6.64903 5.33581 6.64903 5.58646 6.64903C5.83711 6.64903 6.09004 6.64903 6.34525 6.64903C6.3817 6.64903 6.41133 6.64448 6.43411 6.63536C6.4569 6.62625 6.47285 6.60346 6.48196 6.567C6.53665 6.4394 6.61185 6.33002 6.70755 6.23888C6.80325 6.14773 6.91491 6.07482 7.04251 6.02013C7.06986 6.0019 7.08808 5.98367 7.0972 5.96544C7.10631 5.94721 7.11087 5.92443 7.11087 5.89708C7.11087 5.5325 7.11087 5.17019 7.11087 4.81017C7.11087 4.45014 7.11087 4.09239 7.11087 3.73693C7.11087 3.64578 7.0972 3.56375 7.06986 3.49083C7.04251 3.41792 7.0015 3.34956 6.94681 3.28575C6.91035 3.24018 6.86706 3.19461 6.81693 3.14904C6.7668 3.10346 6.71894 3.05333 6.67337 2.99864C6.51842 2.82547 6.425 2.62267 6.3931 2.39025C6.3612 2.15782 6.40449 1.9368 6.52298 1.72716C6.64147 1.52664 6.80553 1.37625 7.01517 1.27599C7.2248 1.17573 7.45267 1.14838 7.69876 1.19396C7.91751 1.23042 8.10664 1.33295 8.26614 1.50157C8.42565 1.67019 8.52363 1.86844 8.56009 2.0963C8.58743 2.26948 8.57832 2.43126 8.53275 2.58165C8.48717 2.73204 8.40514 2.87104 8.28665 2.99864C8.24108 3.05333 8.19323 3.10346 8.1431 3.14904C8.09297 3.19461 8.04512 3.24474 7.99954 3.29943C7.94486 3.36323 7.90612 3.43159 7.88333 3.5045C7.86055 3.57742 7.84915 3.65945 7.84915 3.7506C7.84915 4.10607 7.84915 4.46381 7.84915 4.82384C7.84915 5.18387 7.84915 5.54161 7.84915 5.89708C7.84915 5.92443 7.85371 5.94949 7.86282 5.97228C7.87194 5.99506 7.89472 6.01101 7.93118 6.02013C8.05879 6.07482 8.16816 6.15001 8.25931 6.24571C8.35045 6.34142 8.42793 6.45307 8.49173 6.58068C8.50084 6.5989 8.51452 6.61486 8.53275 6.62853C8.55097 6.6422 8.5692 6.64903 8.58743 6.64903C8.9429 6.65815 9.30065 6.66043 9.66068 6.65587C10.0207 6.65131 10.383 6.64903 10.7476 6.64903C10.7476 6.64903 10.7499 6.64903 10.7544 6.64903C10.759 6.64903 10.7658 6.64448 10.7749 6.63536C10.7749 6.61713 10.7749 6.5989 10.7749 6.58068C10.7749 6.56245 10.7749 6.54422 10.7749 6.52599C10.7749 6.06114 10.7749 5.5963 10.7749 5.13146C10.7749 4.66661 10.7749 4.20177 10.7749 3.73693C10.7749 3.65489 10.7613 3.57742 10.7339 3.5045C10.7066 3.43159 10.6656 3.36323 10.6109 3.29943C10.5653 3.24474 10.5197 3.19233 10.4742 3.1422C10.4286 3.09207 10.383 3.04422 10.3374 2.99864C10.1734 2.82547 10.0777 2.62267 10.0503 2.39025C10.023 2.15782 10.0686 1.94135 10.187 1.74083C10.2964 1.5312 10.4582 1.37625 10.6724 1.27599C10.8866 1.17573 11.1122 1.14838 11.3492 1.19396C11.5679 1.23042 11.7593 1.33295 11.9234 1.50157C12.0874 1.67019 12.1877 1.86844 12.2242 2.0963C12.2515 2.26948 12.2401 2.43126 12.19 2.58165C12.1398 2.73204 12.0555 2.8756 11.937 3.01232C11.8915 3.05789 11.8459 3.10574 11.8003 3.15587C11.7548 3.206 11.7092 3.25385 11.6636 3.29943C11.6089 3.36323 11.5679 3.43159 11.5406 3.5045C11.5132 3.57742 11.4995 3.65489 11.4995 3.73693C11.5087 4.27469 11.5109 4.81017 11.5064 5.34337C11.5018 5.87657 11.4995 6.41206 11.4995 6.94982C11.4995 7.09565 11.4654 7.20275 11.397 7.27111C11.3286 7.33946 11.2215 7.37364 11.0757 7.37364C10.6656 7.37364 10.2554 7.37364 9.84525 7.37364C9.43509 7.37364 9.02949 7.37364 8.62845 7.37364C8.58288 7.37364 8.5487 7.38048 8.52591 7.39415C8.50312 7.40782 8.48717 7.43289 8.47806 7.46935C8.42337 7.59695 8.34818 7.70633 8.25247 7.79747C8.15677 7.88862 8.04967 7.96153 7.93118 8.01622C7.89472 8.02534 7.87194 8.03901 7.86282 8.05724C7.85371 8.07547 7.84915 8.09825 7.84915 8.1256C7.84915 8.49018 7.84915 8.85704 7.84915 9.22618C7.84915 9.59532 7.84915 9.96219 7.84915 10.3268C7.84915 10.427 7.87194 10.5182 7.91751 10.6002C7.96308 10.6822 8.02233 10.7597 8.09525 10.8326C8.14082 10.8782 8.18639 10.9238 8.23196 10.9693C8.27754 11.0149 8.31855 11.0651 8.35501 11.1197C8.49173 11.302 8.56465 11.5048 8.57376 11.7281C8.58288 11.9514 8.52819 12.1588 8.4097 12.3502C8.28209 12.5416 8.11347 12.6829 7.90384 12.774C7.6942 12.8652 7.47545 12.888 7.24759 12.8424C7.03795 12.7968 6.85338 12.692 6.69388 12.5279C6.53437 12.3639 6.43639 12.1725 6.39993 11.9537C6.36347 11.7441 6.3817 11.555 6.45462 11.3863C6.52754 11.2177 6.63691 11.0605 6.78275 10.9147C6.84655 10.8509 6.90807 10.7848 6.96732 10.7164C7.02656 10.6481 7.06986 10.5683 7.0972 10.4772C7.0972 10.4498 7.09948 10.4202 7.10403 10.3883C7.10859 10.3564 7.11087 10.3268 7.11087 10.2994C7.11087 9.94396 7.11087 9.58849 7.11087 9.23302C7.11087 8.87755 7.11087 8.51752 7.11087 8.15294C7.11087 8.11648 7.10631 8.08686 7.0972 8.06407C7.08808 8.04129 7.06074 8.02078 7.01517 8.00255C6.89668 7.94786 6.79186 7.87495 6.70071 7.7838C6.60957 7.69265 6.53209 7.58328 6.46829 7.45568C6.46829 7.43745 6.4569 7.41922 6.43411 7.40099C6.41133 7.38276 6.39082 7.37364 6.37259 7.37364C6.01712 7.37364 5.65937 7.37364 5.29935 7.37364C4.93932 7.37364 4.58157 7.37364 4.2261 7.37364C4.21699 7.37364 4.21015 7.37592 4.2056 7.38048C4.20104 7.38504 4.1942 7.38732 4.18509 7.38732C4.18509 7.40555 4.18509 7.42605 4.18509 7.44884C4.18509 7.47163 4.18509 7.49213 4.18509 7.51036C4.18509 7.95698 4.18509 8.40815 4.18509 8.86388C4.18509 9.31961 4.18509 9.77078 4.18509 10.2174C4.18509 10.345 4.2056 10.4589 4.24661 10.5592C4.28763 10.6595 4.35371 10.7552 4.44485 10.8463C4.49043 10.8919 4.53828 10.9397 4.58841 10.9899C4.63854 11.04 4.68183 11.0924 4.71829 11.1471C4.8459 11.3294 4.9097 11.5345 4.9097 11.7623C4.9097 11.9902 4.85045 12.1953 4.73196 12.3776C4.60436 12.5598 4.43574 12.6943 4.2261 12.7809C4.01647 12.8675 3.80228 12.888 3.58353 12.8424C3.36478 12.7968 3.18021 12.692 3.02982 12.5279C2.87943 12.3639 2.786 12.1725 2.74954 11.9537C2.71308 11.7441 2.72676 11.555 2.79056 11.3863C2.85436 11.2177 2.95918 11.0651 3.10501 10.9283C3.14147 10.8919 3.17565 10.8577 3.20755 10.8258C3.23945 10.7939 3.27363 10.7597 3.31009 10.7233C3.35566 10.6595 3.39212 10.5934 3.41946 10.525C3.44681 10.4567 3.46048 10.3815 3.46048 10.2994C3.46048 9.75255 3.46048 9.20568 3.46048 8.6588C3.46048 8.11193 3.46048 7.56505 3.46048 7.01818C3.46048 6.4713 3.46048 5.92443 3.46048 5.37755C3.46048 4.83068 3.46048 4.2838 3.46048 3.73693C3.46048 3.65489 3.44681 3.57514 3.41946 3.49767C3.39212 3.42019 3.3511 3.35411 3.29642 3.29943C3.25084 3.24474 3.20299 3.19233 3.15286 3.1422C3.10273 3.09207 3.05488 3.03966 3.00931 2.98497C2.85436 2.8118 2.76321 2.609 2.73587 2.37657C2.70853 2.14415 2.7541 1.92768 2.87259 1.72716C2.98196 1.51752 3.14375 1.36258 3.35794 1.26232C3.57213 1.16206 3.79772 1.13471 4.0347 1.18029C4.25345 1.22586 4.44258 1.33068 4.60208 1.49474C4.76159 1.6588 4.85957 1.85476 4.89603 2.08263C4.92337 2.25581 4.91426 2.41759 4.86868 2.56798C4.82311 2.71837 4.74108 2.86193 4.62259 2.99864C4.57702 3.04422 4.53144 3.09207 4.48587 3.1422C4.4403 3.19233 4.39472 3.24018 4.34915 3.28575C4.29446 3.34956 4.25345 3.42019 4.2261 3.49767C4.19876 3.57514 4.18509 3.65489 4.18509 3.73693C4.18509 4.20177 4.18509 4.66661 4.18509 5.13146C4.18509 5.5963 4.18509 6.05659 4.18509 6.51232C4.18509 6.53966 4.18509 6.56245 4.18509 6.58068C4.18509 6.5989 4.18509 6.62169 4.18509 6.64903Z" fill="#F5B754"/>
</svg>
