<svg width="35" height="35" viewBox="0 0 35 35" fill="none" xmlns="http://www.w3.org/2000/svg">
<path d="M24.0625 21.3452C22.9688 22.439 22.2396 23.4416 21.875 24.353C21.5104 25.2645 20.7812 25.7202 19.6875 25.7202C18.5938 25.7202 17.5 25.2645 16.4062 24.353C15.3125 23.4416 14.2188 22.439 13.125 21.3452C12.0312 20.2515 11.0286 19.1577 10.1172 18.064C9.20573 16.9702 8.75 15.8765 8.75 14.7827C8.75 13.689 9.20573 12.9598 10.1172 12.5952C11.0286 12.2306 12.0312 11.5015 13.125 10.4077C13.6719 9.86084 13.7402 9.09749 13.3301 8.11768C12.9199 7.13786 12.3047 6.16943 11.4844 5.2124C10.6641 4.25537 9.77539 3.42367 8.81836 2.71729C7.86133 2.01091 7.10938 1.65771 6.5625 1.65771C6.01562 1.65771 5.36621 1.99951 4.61426 2.68311C3.8623 3.3667 3.14453 4.11865 2.46094 4.93896C1.77734 5.75928 1.19629 6.51123 0.717773 7.19482C0.239258 7.87842 0 8.22021 0 8.22021C0 9.31396 0.256348 10.6413 0.769043 12.2021C1.28174 13.763 1.95394 15.3695 2.78564 17.0215C3.61735 18.6735 4.5516 20.2686 5.58838 21.8066C6.62516 23.3447 7.67904 24.6493 8.75 25.7202C9.82096 26.7912 11.1255 27.8451 12.6636 28.8818C14.2017 29.9186 15.7967 30.8529 17.4487 31.6846C19.1007 32.5163 20.7072 33.1885 22.2681 33.7012C23.8289 34.2139 25.1562 34.4702 26.25 34.4702C26.25 34.4702 26.5918 34.231 27.2754 33.7524C27.959 33.2739 28.7109 32.6929 29.5312 32.0093C30.3516 31.3257 31.1035 30.6079 31.7871 29.856C32.4707 29.104 32.8125 28.4546 32.8125 27.9077C32.8125 27.3608 32.4593 26.6089 31.7529 25.6519C31.0465 24.6948 30.2148 23.8062 29.2578 22.9858C28.3008 22.1655 27.3324 21.5503 26.3525 21.1401C25.3727 20.73 24.6094 20.7983 24.0625 21.3452Z" fill="#F5B754"/>
</svg>
