<svg width="22" height="22" viewBox="0 0 22 22" fill="none" xmlns="http://www.w3.org/2000/svg">
<path d="M16.9714 14.1656L19.3359 16.5702C19.7901 16.9976 20.0172 17.4852 20.0172 18.0329C20.0172 18.5807 19.7901 19.0816 19.3359 19.5358C19.1756 19.6961 18.9886 19.8831 18.7748 20.0969C18.4008 20.4442 18.147 20.7114 18.0134 20.8984C17.3454 21.6198 16.5172 21.9805 15.5286 21.9805C15.4485 21.9805 15.355 21.9805 15.2481 21.9805C14.126 21.9003 12.8569 21.5263 11.4409 20.8583C8.82253 19.5759 6.55154 17.7992 4.62787 15.5282C3.10497 13.7114 2.00955 11.8679 1.34162 9.99764C0.887417 8.79535 0.700394 7.72665 0.780547 6.79154C0.833982 6.01673 1.14123 5.34879 1.7023 4.78772L3.18513 3.3049C3.63933 2.87742 4.1336 2.66368 4.66795 2.66368C5.2023 2.66368 5.68322 2.87742 6.1107 3.3049C6.32444 3.49192 6.59161 3.7591 6.91223 4.10642C7.0191 4.18658 7.16604 4.32016 7.35307 4.50719L8.51528 5.6694C8.96948 6.1236 9.19658 6.62455 9.19658 7.17226C9.19658 7.71997 8.96948 8.22093 8.51528 8.67513C8.48856 8.72856 8.42845 8.79535 8.33494 8.87551C8.24142 8.95566 8.18131 9.0091 8.15459 9.03581C7.70039 9.51673 7.36642 9.8507 7.15268 10.0377C7.41986 10.5988 7.80726 11.2133 8.3149 11.8812C9.41032 13.2438 10.5992 14.3259 11.8817 15.1274C11.9618 15.1809 12.1088 15.261 12.3225 15.3679C12.3492 15.3679 12.376 15.3812 12.4027 15.4079L12.6431 15.5282L14.0057 14.1656C14.4599 13.7114 14.9609 13.4843 15.5086 13.4843C16.0563 13.4843 16.5439 13.7114 16.9714 14.1656ZM18.4943 18.7343C18.9485 18.2801 18.9485 17.8259 18.4943 17.3717L16.1298 15.0072L16.0897 14.9671C15.9027 14.7534 15.7023 14.6465 15.4886 14.6465C15.2748 14.6465 15.0611 14.7667 14.8473 15.0072L13.3645 16.49C13.1508 16.677 12.9237 16.7705 12.6832 16.7705C12.5496 16.7705 12.416 16.7305 12.2825 16.6503C12.2557 16.6503 12.2357 16.6503 12.2223 16.6503C12.209 16.6503 12.2023 16.6503 12.2023 16.6503C12.1221 16.5969 11.9886 16.5167 11.8015 16.4099C11.5611 16.2763 11.3741 16.1828 11.2405 16.1293C9.87788 15.2476 8.59543 14.0721 7.39314 12.6026C6.75192 11.8011 6.28436 11.0396 5.99047 10.3183C5.99047 10.3183 5.99047 10.3049 5.99047 10.2782C5.85688 9.90413 5.93703 9.58352 6.23093 9.31635V9.27627C6.52482 9.0091 6.88551 8.66177 7.31299 8.23429C7.31299 8.23429 7.43322 8.11406 7.67368 7.8736C8.12787 7.4194 8.12787 6.9652 7.67368 6.511L6.51146 5.34879C6.45803 5.29535 6.38455 5.22188 6.29104 5.12837C6.19753 5.03486 6.13742 4.96139 6.1107 4.90795C5.79009 4.58734 5.52291 4.33352 5.30917 4.1465V4.10642C5.09543 3.9194 4.88169 3.82589 4.66795 3.82589C4.45421 3.82589 4.24047 3.9194 4.02673 4.10642L2.54391 5.58925C2.19658 5.96329 1.9962 6.39077 1.94276 6.87169C1.88933 7.6465 2.04963 8.5549 2.42368 9.59688C3.0649 11.3335 4.10688 13.0702 5.54963 14.8068C7.33971 16.9442 9.46375 18.6141 11.9218 19.8163C13.2042 20.4309 14.3397 20.7648 15.3283 20.8183C15.355 20.8183 15.4218 20.8183 15.5286 20.8183C16.1699 20.8183 16.7042 20.5912 17.1317 20.137C17.3454 19.8965 17.626 19.6026 17.9733 19.2553C18.2405 18.9881 18.4141 18.8144 18.4943 18.7343ZM11.8416 6.3507C11.6813 6.32398 11.5544 6.24383 11.4609 6.11024C11.3674 5.97665 11.334 5.82971 11.3607 5.6694C11.3874 5.5091 11.4676 5.38219 11.6012 5.28868C11.7347 5.19516 11.8817 5.16177 12.042 5.18848C13.4313 5.42894 14.6336 6.05681 15.6489 7.07207C16.6641 8.08734 17.292 9.28963 17.5325 10.6789C17.5592 10.8392 17.5258 10.9862 17.4323 11.1198C17.3388 11.2534 17.2118 11.3335 17.0515 11.3602C16.9981 11.3602 16.958 11.3602 16.9313 11.3602C16.6107 11.3602 16.4237 11.1999 16.3702 10.8793C16.1832 9.73047 15.6622 8.72856 14.8073 7.8736C13.979 7.04535 12.9905 6.53772 11.8416 6.3507ZM21.2195 10.5186C21.2462 10.6789 21.2128 10.8259 21.1193 10.9595C21.0258 11.0931 20.9122 11.1599 20.7786 11.1599C20.7252 11.1866 20.6851 11.1999 20.6584 11.1999C20.3378 11.1999 20.1508 11.0396 20.0973 10.719C19.75 8.66177 18.8283 6.88505 17.3321 5.38887C15.8359 3.89268 14.0592 2.97093 12.0019 2.6236C11.8416 2.59688 11.7147 2.51673 11.6212 2.38314C11.5277 2.24955 11.4943 2.10261 11.521 1.9423C11.5477 1.782 11.6279 1.65509 11.7615 1.56158C11.8951 1.46807 12.042 1.43467 12.2023 1.46139C14.5 1.86215 16.4838 2.89746 18.1536 4.5673C19.8235 6.23715 20.8454 8.22093 21.2195 10.5186Z" fill="#1B1B1B"/>
</svg>
