<svg width="22" height="23" viewBox="0 0 22 23" fill="none" xmlns="http://www.w3.org/2000/svg">
<path d="M11.03 12.4707C12.1101 12.4707 13.0364 12.0845 13.8088 11.312C14.5813 10.5396 14.9675 9.61328 14.9675 8.5332C14.9675 7.43945 14.5813 6.50977 13.8088 5.74414C13.0364 4.97852 12.1101 4.5957 11.03 4.5957C9.94995 4.5957 9.02368 4.97852 8.25122 5.74414C7.47876 6.50977 7.09253 7.43945 7.09253 8.5332C7.09253 9.61328 7.47876 10.5396 8.25122 11.312C9.02368 12.0845 9.94995 12.4707 11.03 12.4707ZM11.03 5.25195C11.9324 5.25195 12.7048 5.57324 13.3474 6.21582C13.99 6.8584 14.3113 7.63086 14.3113 8.5332C14.3113 9.43555 13.99 10.208 13.3474 10.8506C12.7048 11.4932 11.9324 11.8145 11.03 11.8145C10.1277 11.8145 9.35522 11.4932 8.71265 10.8506C8.07007 10.208 7.74878 9.43555 7.74878 8.5332C7.74878 7.63086 8.07007 6.8584 8.71265 6.21582C9.35522 5.57324 10.1277 5.25195 11.03 5.25195ZM11.03 0.822266C9.94995 0.822266 8.9314 1.02734 7.97437 1.4375C7.01733 1.84766 6.17993 2.4082 5.46216 3.11914C4.74438 3.83008 4.18042 4.66406 3.77026 5.62109C3.36011 6.57812 3.15503 7.60352 3.15503 8.69727C3.15503 9.8457 3.37378 10.9941 3.81128 12.1426C4.24878 13.291 4.80591 14.4053 5.48267 15.4854C6.15942 16.5654 6.89771 17.5977 7.69751 18.582C8.49731 19.5664 9.25269 20.4688 9.96362 21.2891C9.96362 21.3027 10.0662 21.395 10.2712 21.5659C10.4763 21.7368 10.7224 21.8223 11.0095 21.8223C11.0095 21.8223 11.0164 21.8223 11.03 21.8223C11.0437 21.8223 11.0505 21.8223 11.0505 21.8223C11.3376 21.8223 11.5837 21.7368 11.7888 21.5659C11.9939 21.395 12.0964 21.3027 12.0964 21.2891C12.821 20.4688 13.5798 19.5664 14.3728 18.582C15.1658 17.5977 15.9006 16.5654 16.5774 15.4854C17.2542 14.4053 17.8113 13.291 18.2488 12.1426C18.6863 10.9941 18.905 9.8457 18.905 8.69727C18.905 7.60352 18.7 6.57812 18.2898 5.62109C17.8796 4.66406 17.3157 3.83008 16.5979 3.11914C15.8801 2.4082 15.0427 1.84766 14.0857 1.4375C13.1287 1.02734 12.1101 0.822266 11.03 0.822266ZM11.1121 20.4277C11.0984 20.4414 11.0847 20.4551 11.071 20.4688C11.0574 20.4824 11.0369 20.4893 11.0095 20.4893C11.0095 20.4893 10.9993 20.479 10.9788 20.4585C10.9583 20.438 10.9412 20.4209 10.9275 20.4072C10.3259 19.7236 9.65259 18.9272 8.90747 18.0181C8.16235 17.1089 7.46167 16.1416 6.80542 15.1162C6.14917 14.0908 5.59546 13.0312 5.14429 11.9375C4.69312 10.8438 4.46753 9.76367 4.46753 8.69727C4.46753 7.79492 4.63843 6.94385 4.98022 6.14404C5.32202 5.34424 5.79028 4.64697 6.38501 4.05225C6.97974 3.45752 7.677 2.98926 8.47681 2.64746C9.27661 2.30566 10.1277 2.13477 11.03 2.13477C11.9324 2.13477 12.7834 2.30566 13.5833 2.64746C14.3831 2.98926 15.0803 3.45752 15.675 4.05225C16.2698 4.64697 16.738 5.34424 17.0798 6.14404C17.4216 6.94385 17.5925 7.79492 17.5925 8.69727C17.5925 9.76367 17.3669 10.8438 16.9158 11.9375C16.4646 13.0312 15.9109 14.0908 15.2546 15.1162C14.5984 16.1416 13.8943 17.1089 13.1423 18.0181C12.3904 18.9272 11.7136 19.7305 11.1121 20.4277Z" fill="#1B1B1B"/>
</svg>
