<svg width="15" height="15" viewBox="0 0 15 15" fill="none" xmlns="http://www.w3.org/2000/svg">
<path d="M4.92789 3.80518C5.0008 3.80518 5.07372 3.80518 5.14664 3.80518C5.21955 3.80518 5.29703 3.80518 5.37906 3.80518C5.41552 3.80518 5.44286 3.80062 5.46109 3.7915C5.47932 3.78239 5.48843 3.75505 5.48843 3.70947C5.50666 3.34489 5.65022 3.01676 5.9191 2.7251C6.18798 2.43343 6.50927 2.26481 6.88297 2.21924C6.92854 2.21012 6.97639 2.20557 7.02652 2.20557C7.07665 2.20557 7.12906 2.20557 7.18375 2.20557C7.42073 2.19645 7.65998 2.19189 7.90152 2.19189C8.14306 2.19189 8.38231 2.19645 8.61929 2.20557C9.03856 2.20557 9.40315 2.3514 9.71304 2.64307C10.0229 2.93473 10.1916 3.2902 10.2189 3.70947C10.2189 3.74593 10.228 3.771 10.2462 3.78467C10.2645 3.79834 10.2918 3.80518 10.3283 3.80518C10.4012 3.80518 10.4741 3.80518 10.547 3.80518C10.6199 3.80518 10.6883 3.80518 10.7521 3.80518C10.7521 4.47965 10.7521 5.14958 10.7521 5.81494C10.7521 6.48031 10.7521 7.14795 10.7521 7.81787C10.7521 8.48779 10.7521 9.15771 10.7521 9.82764C10.7521 10.4976 10.7521 11.1652 10.7521 11.8306C10.269 11.8306 9.78596 11.8306 9.30289 11.8306C8.81981 11.8306 8.33446 11.8306 7.84683 11.8306C7.3592 11.8306 6.87157 11.8306 6.38394 11.8306C5.89631 11.8306 5.4064 11.8306 4.91422 11.8306C4.91422 11.1652 4.91422 10.4998 4.91422 9.83447C4.91422 9.16911 4.91649 8.50146 4.92105 7.83154C4.92561 7.16162 4.92789 6.4917 4.92789 5.82178C4.92789 5.15186 4.92789 4.47965 4.92789 3.80518ZM9.11148 3.80518C9.1206 3.66846 9.07274 3.54997 8.96793 3.44971C8.86311 3.34945 8.73778 3.29932 8.59195 3.29932C8.34586 3.29932 8.10204 3.29704 7.8605 3.29248C7.61897 3.28792 7.37971 3.2902 7.14273 3.29932C7.08804 3.29932 7.03336 3.30843 6.97867 3.32666C6.92398 3.34489 6.87385 3.36768 6.82828 3.39502C6.75536 3.43148 6.69839 3.48389 6.65738 3.55225C6.61636 3.62061 6.5913 3.70492 6.58218 3.80518C7.01057 3.80518 7.4344 3.80518 7.85367 3.80518C8.27294 3.80518 8.69221 3.80518 9.11148 3.80518ZM11.8732 11.8306C11.8732 11.1652 11.8732 10.4976 11.8732 9.82764C11.8732 9.15771 11.8732 8.49007 11.8732 7.82471C11.8732 7.15934 11.8732 6.4917 11.8732 5.82178C11.8732 5.15186 11.8732 4.48421 11.8732 3.81885C11.8914 3.80973 11.9097 3.80518 11.9279 3.80518C11.9461 3.80518 11.9643 3.80518 11.9826 3.80518C12.1375 3.81429 12.2879 3.81657 12.4337 3.81201C12.5796 3.80745 12.7254 3.81885 12.8712 3.84619C13.1082 3.89176 13.3042 4.01481 13.4591 4.21533C13.6141 4.41585 13.6916 4.63916 13.6916 4.88525C13.6916 5.45036 13.6916 6.02002 13.6916 6.59424C13.6916 7.16846 13.6916 7.74268 13.6916 8.31689C13.6916 8.89111 13.6916 9.46305 13.6916 10.0327C13.6916 10.6024 13.6916 11.1743 13.6916 11.7485C13.6916 11.7576 13.6916 11.7713 13.6916 11.7896C13.6916 11.8078 13.6916 11.8215 13.6916 11.8306C13.3908 11.8306 13.0877 11.8306 12.7824 11.8306C12.477 11.8306 12.174 11.8306 11.8732 11.8306ZM3.80679 11.8442C3.50601 11.8442 3.20523 11.8442 2.90445 11.8442C2.60367 11.8442 2.29833 11.8442 1.98843 11.8442C1.98843 11.826 1.98843 11.8055 1.98843 11.7827C1.98843 11.7599 1.98843 11.7394 1.98843 11.7212C1.98843 11.1561 1.98843 10.591 1.98843 10.0259C1.98843 9.46077 1.98843 8.89567 1.98843 8.33057C1.98843 7.76546 1.98843 7.19808 1.98843 6.62842C1.98843 6.05876 1.98843 5.49137 1.98843 4.92627C1.98843 4.62549 2.08414 4.37028 2.27554 4.16064C2.46695 3.95101 2.7176 3.83708 3.0275 3.81885C3.1551 3.80973 3.2827 3.80745 3.41031 3.81201C3.53791 3.81657 3.67007 3.81885 3.80679 3.81885C3.80679 4.48421 3.80679 5.15186 3.80679 5.82178C3.80679 6.4917 3.80679 7.15934 3.80679 7.82471C3.80679 8.49007 3.80679 9.15771 3.80679 9.82764C3.80679 10.4976 3.80679 11.1698 3.80679 11.8442Z" fill="#F5B754"/>
</svg>
