<svg width="12" height="10" viewBox="0 0 12 10" fill="none" xmlns="http://www.w3.org/2000/svg">
<path d="M3.08789 1.85522C3.16081 1.85522 3.23372 1.85522 3.30664 1.85522C3.37956 1.85522 3.45703 1.85522 3.53906 1.85522C3.57552 1.85522 3.60286 1.85067 3.62109 1.84155C3.63932 1.83244 3.64844 1.80509 3.64844 1.75952C3.66667 1.39494 3.81022 1.06681 4.0791 0.775146C4.34798 0.483479 4.66927 0.31486 5.04297 0.269287C5.08854 0.260173 5.13639 0.255615 5.18652 0.255615C5.23665 0.255615 5.28906 0.255615 5.34375 0.255615C5.58073 0.246501 5.81999 0.241943 6.06152 0.241943C6.30306 0.241943 6.54232 0.246501 6.7793 0.255615C7.19857 0.255615 7.56315 0.401448 7.87305 0.693115C8.18294 0.984782 8.35156 1.34025 8.37891 1.75952C8.37891 1.79598 8.38802 1.82104 8.40625 1.83472C8.42448 1.84839 8.45182 1.85522 8.48828 1.85522C8.5612 1.85522 8.63411 1.85522 8.70703 1.85522C8.77995 1.85522 8.84831 1.85522 8.91211 1.85522C8.91211 2.5297 8.91211 3.19963 8.91211 3.86499C8.91211 4.53035 8.91211 5.198 8.91211 5.86792C8.91211 6.53784 8.91211 7.20776 8.91211 7.87769C8.91211 8.54761 8.91211 9.21525 8.91211 9.88062C8.42904 9.88062 7.94596 9.88062 7.46289 9.88062C6.97982 9.88062 6.49447 9.88062 6.00684 9.88062C5.51921 9.88062 5.03158 9.88062 4.54395 9.88062C4.05632 9.88062 3.56641 9.88062 3.07422 9.88062C3.07422 9.21525 3.07422 8.54989 3.07422 7.88452C3.07422 7.21916 3.0765 6.55151 3.08105 5.88159C3.08561 5.21167 3.08789 4.54175 3.08789 3.87183C3.08789 3.2019 3.08789 2.5297 3.08789 1.85522ZM7.27148 1.85522C7.2806 1.71851 7.23275 1.60002 7.12793 1.49976C7.02311 1.3995 6.89779 1.34937 6.75195 1.34937C6.50586 1.34937 6.26204 1.34709 6.02051 1.34253C5.77897 1.33797 5.53971 1.34025 5.30273 1.34937C5.24805 1.34937 5.19336 1.35848 5.13867 1.37671C5.08398 1.39494 5.03385 1.41772 4.98828 1.44507C4.91536 1.48153 4.8584 1.53394 4.81738 1.60229C4.77637 1.67065 4.7513 1.75496 4.74219 1.85522C5.17057 1.85522 5.5944 1.85522 6.01367 1.85522C6.43294 1.85522 6.85221 1.85522 7.27148 1.85522ZM10.0332 9.88062C10.0332 9.21525 10.0332 8.54761 10.0332 7.87769C10.0332 7.20776 10.0332 6.54012 10.0332 5.87476C10.0332 5.20939 10.0332 4.54175 10.0332 3.87183C10.0332 3.2019 10.0332 2.53426 10.0332 1.8689C10.0514 1.85978 10.0697 1.85522 10.0879 1.85522C10.1061 1.85522 10.1243 1.85522 10.1426 1.85522C10.2975 1.86434 10.4479 1.86662 10.5938 1.86206C10.7396 1.8575 10.8854 1.8689 11.0312 1.89624C11.2682 1.94181 11.4642 2.06486 11.6191 2.26538C11.7741 2.4659 11.8516 2.68921 11.8516 2.9353C11.8516 3.50041 11.8516 4.07007 11.8516 4.64429C11.8516 5.21851 11.8516 5.79272 11.8516 6.36694C11.8516 6.94116 11.8516 7.5131 11.8516 8.08276C11.8516 8.65243 11.8516 9.22437 11.8516 9.79858C11.8516 9.8077 11.8516 9.82137 11.8516 9.8396C11.8516 9.85783 11.8516 9.8715 11.8516 9.88062C11.5508 9.88062 11.2477 9.88062 10.9424 9.88062C10.637 9.88062 10.334 9.88062 10.0332 9.88062ZM1.9668 9.89429C1.66602 9.89429 1.36523 9.89429 1.06445 9.89429C0.763672 9.89429 0.458333 9.89429 0.148438 9.89429C0.148438 9.87606 0.148438 9.85555 0.148438 9.83276C0.148438 9.80998 0.148438 9.78947 0.148438 9.77124C0.148438 9.20614 0.148438 8.64103 0.148438 8.07593C0.148438 7.51082 0.148438 6.94572 0.148438 6.38062C0.148438 5.81551 0.148438 5.24813 0.148438 4.67847C0.148438 4.10881 0.148438 3.54142 0.148438 2.97632C0.148438 2.67554 0.244141 2.42033 0.435547 2.21069C0.626953 2.00106 0.877604 1.88713 1.1875 1.8689C1.3151 1.85978 1.44271 1.8575 1.57031 1.86206C1.69792 1.86662 1.83008 1.8689 1.9668 1.8689C1.9668 2.53426 1.9668 3.2019 1.9668 3.87183C1.9668 4.54175 1.9668 5.20939 1.9668 5.87476C1.9668 6.54012 1.9668 7.20776 1.9668 7.87769C1.9668 8.54761 1.9668 9.21981 1.9668 9.89429Z" fill="#F5B754"/>
</svg>
