<svg width="12" height="11" viewBox="0 0 12 11" fill="none" xmlns="http://www.w3.org/2000/svg">
<path d="M8.51562 6.8999C8.42447 6.86344 8.33333 6.82471 8.24218 6.78369C8.15104 6.74268 8.05989 6.70394 7.96874 6.66748C7.73176 6.58545 7.59049 6.47835 7.54492 6.34619C7.49934 6.21403 7.51757 6.03857 7.5996 5.81982C7.71809 5.54639 7.8343 5.26839 7.94824 4.98584C8.06217 4.70329 8.16926 4.42074 8.26952 4.13818C8.43359 3.67334 8.49967 3.21077 8.46777 2.75049C8.43587 2.2902 8.30598 1.84131 8.07812 1.40381C7.85025 0.966309 7.55175 0.635905 7.18261 0.412598C6.81347 0.18929 6.38281 0.0821943 5.89062 0.0913086C5.39843 0.100423 4.98372 0.228027 4.64648 0.474121C4.30924 0.720215 4.04492 1.06657 3.85351 1.51318C3.68033 1.92334 3.57096 2.33805 3.52538 2.75732C3.47981 3.1766 3.5345 3.59587 3.68945 4.01514C3.78059 4.28857 3.88313 4.55973 3.99706 4.82861C4.111 5.09749 4.21809 5.36865 4.31835 5.64209C4.36393 5.77881 4.39811 5.91097 4.42089 6.03857C4.44368 6.16618 4.46419 6.27555 4.48242 6.3667C4.12695 6.53988 3.77831 6.7085 3.43652 6.87256C3.09472 7.03662 2.7552 7.19841 2.41796 7.35791C2.08072 7.51742 1.74804 7.67692 1.41992 7.83643C1.09179 7.99593 0.763666 8.15771 0.435541 8.32178C0.371739 8.35824 0.303379 8.40837 0.230463 8.47217C0.157546 8.53597 0.121088 8.59977 0.121088 8.66357C0.102858 9.00993 0.0960225 9.36084 0.10058 9.71631C0.105137 10.0718 0.107416 10.4364 0.107416 10.8101C0.481114 10.8101 0.852533 10.8101 1.22167 10.8101C1.59081 10.8101 1.96223 10.8101 2.33593 10.8101C2.70963 10.8101 3.08333 10.8101 3.45703 10.8101C3.83072 10.8101 4.20442 10.8101 4.57812 10.8101L8.51562 6.8999ZM11.373 8.08936C11.1907 8.01644 11.0107 7.94124 10.833 7.86377C10.6553 7.7863 10.4753 7.7111 10.293 7.63818L7.09374 10.8374C7.48567 10.8374 7.87988 10.8374 8.27636 10.8374C8.67284 10.8374 9.07161 10.8374 9.47265 10.8374C9.87369 10.8374 10.2747 10.8374 10.6758 10.8374C11.0768 10.8374 11.4779 10.8374 11.8789 10.8374C11.8789 10.5093 11.8766 10.1834 11.8721 9.85986C11.8675 9.5363 11.8743 9.21501 11.8926 8.896C11.9017 8.68636 11.8629 8.52002 11.7764 8.39697C11.6898 8.27393 11.5553 8.17139 11.373 8.08936Z" fill="#F5B754"/>
</svg>
