<svg width="33" height="34" viewBox="0 0 33 34" fill="none" xmlns="http://www.w3.org/2000/svg">
<path d="M24.0625 20.3452C22.9688 21.439 22.2396 22.4416 21.875 23.353C21.5104 24.2645 20.7812 24.7202 19.6875 24.7202C18.5938 24.7202 17.5 24.2645 16.4062 23.353C15.3125 22.4416 14.2188 21.439 13.125 20.3452C12.0312 19.2515 11.0286 18.1577 10.1172 17.064C9.20573 15.9702 8.75 14.8765 8.75 13.7827C8.75 12.689 9.20573 11.9598 10.1172 11.5952C11.0286 11.2306 12.0312 10.5015 13.125 9.40771C13.6719 8.86084 13.7402 8.09749 13.3301 7.11768C12.9199 6.13786 12.3047 5.16943 11.4844 4.2124C10.6641 3.25537 9.77539 2.42367 8.81836 1.71729C7.86133 1.01091 7.10938 0.657715 6.5625 0.657715C6.01562 0.657715 5.36621 0.999512 4.61426 1.68311C3.8623 2.3667 3.14453 3.11865 2.46094 3.93896C1.77734 4.75928 1.19629 5.51123 0.717773 6.19482C0.239258 6.87842 0 7.22021 0 7.22021C0 8.31396 0.256348 9.64128 0.769043 11.2021C1.28174 12.763 1.95394 14.3695 2.78564 16.0215C3.61735 17.6735 4.5516 19.2686 5.58838 20.8066C6.62516 22.3447 7.67904 23.6493 8.75 24.7202C9.82096 25.7912 11.1255 26.8451 12.6636 27.8818C14.2017 28.9186 15.7967 29.8529 17.4487 30.6846C19.1007 31.5163 20.7072 32.1885 22.2681 32.7012C23.8289 33.2139 25.1562 33.4702 26.25 33.4702C26.25 33.4702 26.5918 33.231 27.2754 32.7524C27.959 32.2739 28.7109 31.6929 29.5312 31.0093C30.3516 30.3257 31.1035 29.6079 31.7871 28.856C32.4707 28.104 32.8125 27.4546 32.8125 26.9077C32.8125 26.3608 32.4593 25.6089 31.7529 24.6519C31.0465 23.6948 30.2148 22.8062 29.2578 21.9858C28.3008 21.1655 27.3324 20.5503 26.3525 20.1401C25.3727 19.73 24.6094 19.7983 24.0625 20.3452Z" fill="#1B1B1B"/>
</svg>
