<svg width="22" height="22" viewBox="0 0 22 22" fill="none" xmlns="http://www.w3.org/2000/svg">
<path d="M17.3314 13.5251L19.6959 15.9297C20.1501 16.3572 20.3772 16.8448 20.3772 17.3925C20.3772 17.9402 20.1501 18.4411 19.6959 18.8953C19.5356 19.0556 19.3485 19.2427 19.1348 19.4564C18.7608 19.8037 18.5069 20.0709 18.3734 20.2579C17.7054 20.9793 16.8772 21.34 15.8886 21.34C15.8085 21.34 15.715 21.34 15.6081 21.34C14.486 21.2598 13.2169 20.8858 11.8008 20.2179C9.18252 18.9354 6.91152 17.1587 4.98786 14.8877C3.46496 13.0709 2.36954 11.2274 1.7016 9.35717C1.2474 8.15488 1.06038 7.08618 1.14053 6.15107C1.19397 5.37626 1.50122 4.70832 2.06229 4.14725L3.54511 2.66442C3.99931 2.23694 4.49359 2.0232 5.02794 2.0232C5.56229 2.0232 6.0432 2.23694 6.47068 2.66442C6.68442 2.85145 6.9516 3.11862 7.27221 3.46595C7.37908 3.5461 7.52603 3.67969 7.71305 3.86671L8.87526 5.02893C9.32946 5.48313 9.55656 5.98408 9.55656 6.53179C9.55656 7.0795 9.32946 7.58045 8.87526 8.03465C8.84855 8.08809 8.78843 8.15488 8.69492 8.23503C8.60141 8.31519 8.54129 8.36862 8.51458 8.39534C8.06038 8.87626 7.72641 9.21023 7.51267 9.39725C7.77984 9.95832 8.16725 10.5728 8.67488 11.2408C9.7703 12.6034 10.9592 13.6854 12.2417 14.4869C12.3218 14.5404 12.4688 14.6205 12.6825 14.7274C12.7092 14.7274 12.736 14.7408 12.7627 14.7675L13.0031 14.8877L14.3657 13.5251C14.8199 13.0709 15.3209 12.8438 15.8686 12.8438C16.4163 12.8438 16.9039 13.0709 17.3314 13.5251ZM18.8543 18.0938C19.3085 17.6396 19.3085 17.1854 18.8543 16.7312L16.4898 14.3667L16.4497 14.3266C16.2627 14.1129 16.0623 14.006 15.8485 14.006C15.6348 14.006 15.4211 14.1263 15.2073 14.3667L13.7245 15.8495C13.5108 16.0366 13.2837 16.1301 13.0432 16.1301C12.9096 16.1301 12.776 16.09 12.6424 16.0098C12.6157 16.0098 12.5957 16.0098 12.5823 16.0098C12.569 16.0098 12.5623 16.0098 12.5623 16.0098C12.4821 15.9564 12.3485 15.8763 12.1615 15.7694C11.9211 15.6358 11.734 15.5423 11.6005 15.4889C10.2379 14.6072 8.95542 13.4316 7.75313 11.9621C7.11191 11.1606 6.64435 10.3992 6.35046 9.67778C6.35046 9.67778 6.35046 9.66442 6.35046 9.63771C6.21687 9.26366 6.29702 8.94305 6.59091 8.67587V8.6358C6.88481 8.36862 7.24549 8.02129 7.67297 7.59381C7.67297 7.59381 7.7932 7.47359 8.03366 7.23313C8.48786 6.77893 8.48786 6.32473 8.03366 5.87053L6.87145 4.70832C6.81801 4.65488 6.74454 4.58141 6.65103 4.4879C6.55752 4.39439 6.4974 4.32091 6.47068 4.26748C6.15007 3.94687 5.8829 3.69305 5.66916 3.50603V3.46595C5.45542 3.27893 5.24168 3.18542 5.02794 3.18542C4.8142 3.18542 4.60046 3.27893 4.38671 3.46595L2.90389 4.94878C2.55656 5.32282 2.35618 5.7503 2.30275 6.23122C2.24931 7.00603 2.40962 7.91442 2.78366 8.95641C3.42488 10.6931 4.46687 12.4297 5.90962 14.1663C7.69969 16.3037 9.82374 17.9736 12.2818 19.1759C13.5642 19.7904 14.6997 20.1243 15.6882 20.1778C15.715 20.1778 15.7818 20.1778 15.8886 20.1778C16.5298 20.1778 17.0642 19.9507 17.4917 19.4965C17.7054 19.256 17.986 18.9621 18.3333 18.6148C18.6005 18.3476 18.7741 18.174 18.8543 18.0938ZM12.2016 5.71023C12.0413 5.68351 11.9144 5.60336 11.8209 5.46977C11.7274 5.33618 11.694 5.18923 11.7207 5.02893C11.7474 4.86862 11.8276 4.74171 11.9611 4.6482C12.0947 4.55469 12.2417 4.5213 12.402 4.54801C13.7913 4.78847 14.9936 5.41633 16.0089 6.4316C17.0241 7.44687 17.652 8.64916 17.8924 10.0385C17.9192 10.1988 17.8858 10.3457 17.7922 10.4793C17.6987 10.6129 17.5718 10.6931 17.4115 10.7198C17.3581 10.7198 17.318 10.7198 17.2913 10.7198C16.9707 10.7198 16.7837 10.5595 16.7302 10.2389C16.5432 9.09 16.0222 8.08809 15.1672 7.23313C14.339 6.40488 13.3505 5.89725 12.2016 5.71023ZM21.5795 9.87817C21.6062 10.0385 21.5728 10.1854 21.4793 10.319C21.3858 10.4526 21.2722 10.5194 21.1386 10.5194C21.0852 10.5461 21.0451 10.5595 21.0184 10.5595C20.6978 10.5595 20.5108 10.3992 20.4573 10.0785C20.11 8.02129 19.1882 6.24458 17.6921 4.74839C16.1959 3.25221 14.4192 2.33046 12.3619 1.98313C12.2016 1.95641 12.0747 1.87626 11.9812 1.74267C11.8877 1.60908 11.8543 1.46214 11.881 1.30183C11.9077 1.14152 11.9879 1.01462 12.1214 0.921104C12.255 0.827593 12.402 0.794195 12.5623 0.820913C14.86 1.22168 16.8438 2.25698 18.5136 3.92683C20.1835 5.59668 21.2054 7.58045 21.5795 9.87817Z" fill="white"/>
</svg>
