<svg width="27" height="36" viewBox="0 0 27 36" fill="none" xmlns="http://www.w3.org/2000/svg">
<path d="M13.5 19.8843C15.3001 19.8843 16.8439 19.2406 18.1313 17.9531C19.4188 16.6657 20.0625 15.1219 20.0625 13.3218C20.0625 11.4989 19.4188 9.94938 18.1313 8.67334C16.8439 7.3973 15.3001 6.75928 13.5 6.75928C11.6999 6.75928 10.1561 7.3973 8.86865 8.67334C7.58122 9.94938 6.9375 11.4989 6.9375 13.3218C6.9375 15.1219 7.58122 16.6657 8.86865 17.9531C10.1561 19.2406 11.6999 19.8843 13.5 19.8843ZM13.5 7.85303C15.0039 7.85303 16.2913 8.38851 17.3623 9.45947C18.4333 10.5304 18.9688 11.8179 18.9688 13.3218C18.9688 14.8257 18.4333 16.1131 17.3623 17.1841C16.2913 18.255 15.0039 18.7905 13.5 18.7905C11.9961 18.7905 10.7087 18.255 9.6377 17.1841C8.56673 16.1131 8.03125 14.8257 8.03125 13.3218C8.03125 11.8179 8.56673 10.5304 9.6377 9.45947C10.7087 8.38851 11.9961 7.85303 13.5 7.85303ZM13.5 0.470215C11.6999 0.470215 10.0023 0.812012 8.40723 1.49561C6.81217 2.1792 5.4165 3.11345 4.22021 4.29834C3.02393 5.48324 2.08398 6.87321 1.40039 8.46826C0.716797 10.0633 0.375 11.7723 0.375 13.5952C0.375 15.5093 0.739583 17.4233 1.46875 19.3374C2.19792 21.2515 3.12646 23.1086 4.25439 24.9087C5.38232 26.7088 6.61279 28.4292 7.9458 30.0698C9.27881 31.7104 10.5378 33.2144 11.7227 34.5815C11.7227 34.6043 11.8936 34.7581 12.2354 35.043C12.5771 35.3278 12.9873 35.4702 13.4658 35.4702C13.4658 35.4702 13.4772 35.4702 13.5 35.4702C13.5228 35.4702 13.5342 35.4702 13.5342 35.4702C14.0127 35.4702 14.4229 35.3278 14.7646 35.043C15.1064 34.7581 15.2773 34.6043 15.2773 34.5815C16.485 33.2144 17.7497 31.7104 19.0713 30.0698C20.3929 28.4292 21.6177 26.7088 22.7456 24.9087C23.8735 23.1086 24.8021 21.2515 25.5312 19.3374C26.2604 17.4233 26.625 15.5093 26.625 13.5952C26.625 11.7723 26.2832 10.0633 25.5996 8.46826C24.916 6.87321 23.9761 5.48324 22.7798 4.29834C21.5835 3.11345 20.1878 2.1792 18.5928 1.49561C16.9977 0.812012 15.3001 0.470215 13.5 0.470215ZM13.6367 33.146C13.6139 33.1688 13.5911 33.1916 13.5684 33.2144C13.5456 33.2371 13.5114 33.2485 13.4658 33.2485C13.4658 33.2485 13.4487 33.2314 13.4146 33.1973C13.3804 33.1631 13.3519 33.1346 13.3291 33.1118C12.3265 31.9725 11.2043 30.6452 9.9624 29.1299C8.72054 27.6146 7.55273 26.0024 6.45898 24.2935C5.36523 22.5845 4.44238 20.8185 3.69043 18.9956C2.93848 17.1727 2.5625 15.3726 2.5625 13.5952C2.5625 12.0913 2.84733 10.6729 3.41699 9.33984C3.98665 8.00684 4.76709 6.84473 5.7583 5.85352C6.74951 4.8623 7.91162 4.08187 9.24463 3.51221C10.5776 2.94255 11.9961 2.65771 13.5 2.65771C15.0039 2.65771 16.4224 2.94255 17.7554 3.51221C19.0884 4.08187 20.2505 4.8623 21.2417 5.85352C22.2329 6.84473 23.0133 8.00684 23.583 9.33984C24.1527 10.6729 24.4375 12.0913 24.4375 13.5952C24.4375 15.3726 24.0615 17.1727 23.3096 18.9956C22.5576 20.8185 21.6348 22.5845 20.541 24.2935C19.4473 26.0024 18.2738 27.6146 17.0205 29.1299C15.7673 30.6452 14.6393 31.9839 13.6367 33.146Z" fill="#F5B754"/>
</svg>
