<svg width="40" height="46" viewBox="0 0 40 46" fill="none" xmlns="http://www.w3.org/2000/svg">
<path d="M8.44 20.4077C7.44391 20.4077 6.50641 20.5835 5.6275 20.9351V20.4077C5.6861 18.8257 6.24274 17.5073 7.29742 16.4526C8.35211 15.3979 9.67047 14.8413 11.2525 14.7827C12.0728 14.7827 12.7466 14.519 13.274 13.9917C13.8013 13.4644 14.065 12.7905 14.065 11.9702C14.065 11.1499 13.8013 10.4761 13.274 9.94873C12.7466 9.42139 12.0728 9.15771 11.2525 9.15771C8.08844 9.21631 5.45172 10.3296 3.34235 12.4976C1.17438 14.6069 0.0610962 17.2437 0.00250244 20.4077V28.8452C0.0610962 31.2476 0.881409 33.2397 2.46344 34.8218C4.04547 36.4038 6.03766 37.2241 8.44 37.2827C10.8423 37.2241 12.8345 36.4038 14.4166 34.8218C15.9986 33.2397 16.8189 31.2476 16.8775 28.8452C16.8189 26.4429 15.9986 24.4507 14.4166 22.8687C12.8345 21.2866 10.8423 20.4663 8.44 20.4077ZM30.94 20.4077C29.9439 20.4077 29.0064 20.5835 28.1275 20.9351V20.4077C28.1861 18.8257 28.7427 17.5073 29.7974 16.4526C30.8521 15.3979 32.1705 14.8413 33.7525 14.7827C34.5728 14.7827 35.2466 14.519 35.774 13.9917C36.3013 13.4644 36.565 12.7905 36.565 11.9702C36.565 11.1499 36.3013 10.4761 35.774 9.94873C35.2466 9.42139 34.5728 9.15771 33.7525 9.15771C30.5884 9.21631 27.9517 10.3296 25.8423 12.4976C23.6744 14.6069 22.5611 17.2437 22.5025 20.4077V28.8452C22.5611 31.2476 23.3814 33.2397 24.9634 34.8218C26.5455 36.4038 28.5377 37.2241 30.94 37.2827C33.3423 37.2241 35.3345 36.4038 36.9166 34.8218C38.4986 33.2397 39.3189 31.2476 39.3775 28.8452C39.3189 26.4429 38.4986 24.4507 36.9166 22.8687C35.3345 21.2866 33.3423 20.4663 30.94 20.4077Z" fill="#F5B754"/>
</svg>
