<svg width="10" height="13" viewBox="0 0 10 13" fill="none" xmlns="http://www.w3.org/2000/svg">
<path d="M1.70508 6.39891C1.81445 6.39891 1.92383 6.39891 2.0332 6.39891C2.14258 6.39891 2.2474 6.39891 2.34766 6.39891C2.60286 6.39891 2.85579 6.39891 3.10645 6.39891C3.3571 6.39891 3.61003 6.39891 3.86523 6.39891C3.90169 6.39891 3.93132 6.39436 3.9541 6.38524C3.97689 6.37613 3.99284 6.35334 4.00195 6.31688C4.05664 6.18928 4.13184 6.0799 4.22754 5.98876C4.32324 5.89761 4.4349 5.82469 4.5625 5.77001C4.58984 5.75178 4.60807 5.73355 4.61719 5.71532C4.6263 5.69709 4.63086 5.6743 4.63086 5.64696C4.63086 5.28238 4.63086 4.92007 4.63086 4.56005C4.63086 4.20002 4.63086 3.84227 4.63086 3.4868C4.63086 3.39566 4.61719 3.31363 4.58984 3.24071C4.5625 3.16779 4.52148 3.09943 4.4668 3.03563C4.43034 2.99006 4.38704 2.94449 4.33691 2.89891C4.28678 2.85334 4.23893 2.80321 4.19336 2.74852C4.03841 2.57535 3.94499 2.37255 3.91309 2.14012C3.88119 1.9077 3.92448 1.68667 4.04297 1.47704C4.16146 1.27652 4.32552 1.12613 4.53516 1.02587C4.74479 0.925606 4.97266 0.898262 5.21875 0.943835C5.4375 0.980293 5.62663 1.08283 5.78613 1.25145C5.94564 1.42007 6.04362 1.61831 6.08008 1.84618C6.10742 2.01936 6.09831 2.18114 6.05273 2.33153C6.00716 2.48192 5.92513 2.62092 5.80664 2.74852C5.76107 2.80321 5.71322 2.85334 5.66309 2.89891C5.61296 2.94449 5.5651 2.99462 5.51953 3.0493C5.46484 3.11311 5.42611 3.18147 5.40332 3.25438C5.38053 3.3273 5.36914 3.40933 5.36914 3.50048C5.36914 3.85594 5.36914 4.21369 5.36914 4.57372C5.36914 4.93374 5.36914 5.29149 5.36914 5.64696C5.36914 5.6743 5.3737 5.69937 5.38281 5.72216C5.39193 5.74494 5.41471 5.76089 5.45117 5.77001C5.57878 5.82469 5.68815 5.89989 5.7793 5.99559C5.87044 6.0913 5.94792 6.20295 6.01172 6.33055C6.02083 6.34878 6.03451 6.36473 6.05273 6.37841C6.07096 6.39208 6.08919 6.39891 6.10742 6.39891C6.46289 6.40803 6.82064 6.41031 7.18066 6.40575C7.54069 6.40119 7.903 6.39891 8.26758 6.39891C8.26758 6.39891 8.26986 6.39891 8.27442 6.39891C8.27897 6.39891 8.28581 6.39436 8.29492 6.38524C8.29492 6.36701 8.29492 6.34878 8.29492 6.33055C8.29492 6.31232 8.29492 6.2941 8.29492 6.27587C8.29492 5.81102 8.29492 5.34618 8.29492 4.88134C8.29492 4.41649 8.29492 3.95165 8.29492 3.4868C8.29492 3.40477 8.28125 3.3273 8.25391 3.25438C8.22656 3.18147 8.18555 3.11311 8.13086 3.0493C8.08529 2.99462 8.03971 2.94221 7.99414 2.89208C7.94857 2.84195 7.903 2.7941 7.85742 2.74852C7.69336 2.57535 7.59766 2.37255 7.57031 2.14012C7.54297 1.9077 7.58854 1.69123 7.70703 1.49071C7.81641 1.28107 7.97819 1.12613 8.19238 1.02587C8.40658 0.925606 8.63216 0.898262 8.86914 0.943835C9.08789 0.980293 9.2793 1.08283 9.44336 1.25145C9.60742 1.42007 9.70768 1.61831 9.74414 1.84618C9.77149 2.01936 9.76009 2.18114 9.70996 2.33153C9.65983 2.48192 9.57552 2.62548 9.45703 2.76219C9.41146 2.80777 9.36589 2.85562 9.32031 2.90575C9.27474 2.95588 9.22917 3.00373 9.18359 3.0493C9.12891 3.11311 9.08789 3.18147 9.06055 3.25438C9.0332 3.3273 9.01953 3.40477 9.01953 3.4868C9.02865 4.02456 9.03092 4.56005 9.02637 5.09325C9.02181 5.62645 9.01953 6.16193 9.01953 6.69969C9.01953 6.84553 8.98535 6.95262 8.91699 7.02098C8.84863 7.08934 8.74154 7.12352 8.5957 7.12352C8.18555 7.12352 7.77539 7.12352 7.36523 7.12352C6.95508 7.12352 6.54948 7.12352 6.14844 7.12352C6.10287 7.12352 6.06869 7.13036 6.0459 7.14403C6.02311 7.1577 6.00716 7.18277 5.99805 7.21923C5.94336 7.34683 5.86816 7.4562 5.77246 7.54735C5.67676 7.6385 5.56966 7.71141 5.45117 7.7661C5.41471 7.77522 5.39193 7.78889 5.38281 7.80712C5.3737 7.82535 5.36914 7.84813 5.36914 7.87548C5.36914 8.24006 5.36914 8.60692 5.36914 8.97606C5.36914 9.3452 5.36914 9.71206 5.36914 10.0766C5.36914 10.1769 5.39193 10.2681 5.4375 10.3501C5.48307 10.4321 5.54232 10.5096 5.61523 10.5825C5.66081 10.6281 5.70638 10.6737 5.75195 10.7192C5.79753 10.7648 5.83854 10.8149 5.875 10.8696C6.01172 11.0519 6.08464 11.2547 6.09375 11.478C6.10287 11.7013 6.04818 11.9087 5.92969 12.1001C5.80208 12.2915 5.63346 12.4328 5.42383 12.5239C5.21419 12.6151 4.99544 12.6378 4.76758 12.5923C4.55794 12.5467 4.37337 12.4419 4.21387 12.2778C4.05436 12.1138 3.95638 11.9224 3.91992 11.7036C3.88346 11.494 3.90169 11.3048 3.97461 11.1362C4.04753 10.9676 4.1569 10.8104 4.30273 10.6645C4.36654 10.6007 4.42806 10.5347 4.48731 10.4663C4.54655 10.3979 4.58984 10.3182 4.61719 10.227C4.61719 10.1997 4.61947 10.1701 4.62402 10.1382C4.62858 10.1063 4.63086 10.0766 4.63086 10.0493C4.63086 9.69384 4.63086 9.33837 4.63086 8.9829C4.63086 8.62743 4.63086 8.2674 4.63086 7.90282C4.63086 7.86636 4.6263 7.83674 4.61719 7.81395C4.60807 7.79117 4.58073 7.77066 4.53516 7.75243C4.41667 7.69774 4.31185 7.62482 4.2207 7.53368C4.12956 7.44253 4.05208 7.33316 3.98828 7.20555C3.98828 7.18732 3.97689 7.1691 3.9541 7.15087C3.93132 7.13264 3.91081 7.12352 3.89258 7.12352C3.53711 7.12352 3.17936 7.12352 2.81934 7.12352C2.45931 7.12352 2.10156 7.12352 1.74609 7.12352C1.73698 7.12352 1.73014 7.1258 1.72559 7.13036C1.72103 7.13492 1.71419 7.13719 1.70508 7.13719C1.70508 7.15542 1.70508 7.17593 1.70508 7.19872C1.70508 7.2215 1.70508 7.24201 1.70508 7.26024C1.70508 7.70686 1.70508 8.15803 1.70508 8.61376C1.70508 9.06949 1.70508 9.52066 1.70508 9.96727C1.70508 10.0949 1.72559 10.2088 1.7666 10.3091C1.80762 10.4093 1.8737 10.505 1.96484 10.5962C2.01042 10.6418 2.05827 10.6896 2.1084 10.7397C2.15853 10.7899 2.20182 10.8423 2.23828 10.897C2.36589 11.0793 2.42969 11.2843 2.42969 11.5122C2.42969 11.7401 2.37044 11.9451 2.25195 12.1274C2.12435 12.3097 1.95573 12.4442 1.74609 12.5307C1.53646 12.6173 1.32227 12.6378 1.10352 12.5923C0.884766 12.5467 0.700195 12.4419 0.549805 12.2778C0.399414 12.1138 0.30599 11.9224 0.269531 11.7036C0.233073 11.494 0.246745 11.3048 0.310547 11.1362C0.374349 10.9676 0.479167 10.8149 0.625 10.6782C0.661458 10.6418 0.695638 10.6076 0.727539 10.5757C0.75944 10.5438 0.79362 10.5096 0.830078 10.4731C0.875651 10.4093 0.912109 10.3432 0.939453 10.2749C0.966797 10.2065 0.980469 10.1313 0.980469 10.0493C0.980469 9.50243 0.980469 8.95555 0.980469 8.40868C0.980469 7.8618 0.980469 7.31493 0.980469 6.76805C0.980469 6.22118 0.980469 5.6743 0.980469 5.12743C0.980469 4.58055 0.980469 4.03368 0.980469 3.4868C0.980469 3.40477 0.966797 3.32502 0.939453 3.24755C0.912109 3.17007 0.871094 3.10399 0.816406 3.0493C0.770833 2.99462 0.722982 2.94221 0.672852 2.89208C0.622721 2.84195 0.57487 2.78954 0.529297 2.73485C0.374349 2.56167 0.283203 2.35887 0.255859 2.12645C0.228516 1.89403 0.274089 1.67756 0.392578 1.47704C0.501953 1.2674 0.663737 1.11246 0.87793 1.01219C1.09212 0.911934 1.31771 0.88459 1.55469 0.930163C1.77344 0.975737 1.96257 1.08055 2.12207 1.24462C2.28158 1.40868 2.37956 1.60464 2.41602 1.83251C2.44336 2.00568 2.43424 2.16747 2.38867 2.31786C2.3431 2.46825 2.26107 2.6118 2.14258 2.74852C2.09701 2.7941 2.05143 2.84195 2.00586 2.89208C1.96029 2.94221 1.91471 2.99006 1.86914 3.03563C1.81445 3.09943 1.77344 3.17007 1.74609 3.24755C1.71875 3.32502 1.70508 3.40477 1.70508 3.4868C1.70508 3.95165 1.70508 4.41649 1.70508 4.88134C1.70508 5.34618 1.70508 5.80647 1.70508 6.26219C1.70508 6.28954 1.70508 6.31232 1.70508 6.33055C1.70508 6.34878 1.70508 6.37157 1.70508 6.39891Z" fill="#F5B754"/>
</svg>
