<svg width="16" height="16" viewBox="0 0 16 16" fill="none" xmlns="http://www.w3.org/2000/svg">
<path d="M12.9764 2.54895C14.371 3.94348 15.2342 5.76965 15.2342 7.76184C15.2342 11.8126 11.8475 15.1329 7.76353 15.1329C6.53501 15.1329 5.3397 14.8009 4.244 14.2365L0.359233 15.2325L1.38853 11.4142C0.75767 10.3185 0.392436 9.05676 0.392436 7.72864C0.392436 3.67786 3.71275 0.357544 7.76353 0.357544C9.75572 0.357544 11.6151 1.15442 12.9764 2.54895ZM7.76353 13.8712C11.1502 13.8712 13.9725 11.1154 13.9725 7.76184C13.9725 6.10168 13.2752 4.57434 12.1131 3.41223C10.951 2.25012 9.42369 1.61926 7.79673 1.61926C4.41001 1.61926 1.65415 4.37512 1.65415 7.72864C1.65415 8.89075 1.98619 10.0197 2.58384 11.0157L2.74986 11.2482L2.119 13.506L4.44322 12.8751L4.64244 13.0079C5.60533 13.5724 6.66783 13.8712 7.76353 13.8712ZM11.1502 9.28918C11.3163 9.38879 11.4491 9.422 11.4823 9.52161C11.5487 9.58801 11.5487 9.95325 11.3827 10.3849C11.2167 10.8165 10.4862 11.215 10.1542 11.2482C9.5565 11.3478 9.09165 11.3146 7.92955 10.7833C6.07017 9.98645 4.87486 8.12708 4.77525 8.02747C4.67564 7.89465 4.04478 7.03137 4.04478 6.10168C4.04478 5.2052 4.50962 4.77356 4.67564 4.57434C4.84165 4.37512 5.04087 4.34192 5.17369 4.34192C5.2733 4.34192 5.40611 4.34192 5.50572 4.34192C5.63853 4.34192 5.77134 4.30872 5.93736 4.67395C6.07017 5.03918 6.46861 5.93567 6.50181 6.03528C6.53501 6.13489 6.56822 6.2345 6.50181 6.36731C6.16978 7.06458 5.77134 7.03137 5.97056 7.3634C6.70103 8.59192 7.3983 9.02356 8.494 9.55481C8.66001 9.65442 8.75962 9.62122 8.89244 9.52161C8.99205 9.38879 9.35728 8.95715 9.45689 8.79114C9.5897 8.59192 9.72251 8.62512 9.88853 8.69153C10.0545 8.75793 10.951 9.18958 11.1502 9.28918Z" fill="#1B1B1B"/>
</svg>
