<svg width="14" height="51" viewBox="0 0 14 51" fill="none" xmlns="http://www.w3.org/2000/svg">
<path d="M11.4409 20.96C12.5894 22.1084 13.3003 23.6123 13.3003 25.2529C13.3003 28.5889 10.5113 31.3232 7.14797 31.3232C6.13625 31.3232 5.15188 31.0498 4.24954 30.585L1.05032 31.4053L1.89797 28.2607C1.37844 27.3584 1.07766 26.3193 1.07766 25.2256C1.07766 21.8896 3.81204 19.1553 7.14797 19.1553C8.7886 19.1553 10.3198 19.8115 11.4409 20.96ZM7.14797 30.2842C9.93704 30.2842 12.2613 28.0146 12.2613 25.2529C12.2613 23.8857 11.687 22.6279 10.73 21.6709C9.77297 20.7139 8.51516 20.1943 7.17532 20.1943C4.38625 20.1943 2.11672 22.4639 2.11672 25.2256C2.11672 26.1826 2.39016 27.1123 2.88235 27.9326L3.01907 28.124L2.49954 29.9834L4.4136 29.4639L4.57766 29.5732C5.37063 30.0381 6.24563 30.2842 7.14797 30.2842ZM9.93704 26.5107C10.0738 26.5928 10.1831 26.6201 10.2105 26.7021C10.2652 26.7568 10.2652 27.0576 10.1284 27.4131C9.99172 27.7686 9.39016 28.0967 9.11672 28.124C8.62454 28.2061 8.24172 28.1787 7.28469 27.7412C5.75344 27.085 4.76907 25.5537 4.68704 25.4717C4.605 25.3623 4.08547 24.6514 4.08547 23.8857C4.08547 23.1475 4.46829 22.792 4.605 22.6279C4.74172 22.4639 4.90579 22.4365 5.01516 22.4365C5.09719 22.4365 5.20657 22.4365 5.2886 22.4365C5.39797 22.4365 5.50735 22.4092 5.64407 22.71C5.75344 23.0107 6.08157 23.749 6.10891 23.8311C6.13625 23.9131 6.1636 23.9951 6.10891 24.1045C5.83547 24.6787 5.50735 24.6514 5.67141 24.9248C6.27297 25.9365 6.84719 26.292 7.74954 26.7295C7.88625 26.8115 7.96829 26.7842 8.07766 26.7021C8.15969 26.5928 8.46047 26.2373 8.5425 26.1006C8.65188 25.9365 8.76125 25.9639 8.89797 26.0186C9.03469 26.0732 9.77297 26.4287 9.93704 26.5107Z" fill="white"/>
</svg>
