<svg width="16" height="51" viewBox="0 0 16 51" fill="none" xmlns="http://www.w3.org/2000/svg">
<path d="M15.3639 21.6982C15.692 22.8467 15.692 25.3076 15.692 25.3076C15.692 25.3076 15.692 27.7412 15.3639 28.917C15.1998 29.5732 14.6803 30.0654 14.0514 30.2295C12.8756 30.5303 8.22719 30.5303 8.22719 30.5303C8.22719 30.5303 3.55141 30.5303 2.37563 30.2295C1.74672 30.0654 1.22719 29.5732 1.06313 28.917C0.735003 27.7412 0.735003 25.3076 0.735003 25.3076C0.735003 25.3076 0.735003 22.8467 1.06313 21.6982C1.22719 21.042 1.74672 20.5225 2.37563 20.3584C3.55141 20.0303 8.22719 20.0303 8.22719 20.0303C8.22719 20.0303 12.8756 20.0303 14.0514 20.3584C14.6803 20.5225 15.1998 21.042 15.3639 21.6982ZM6.69594 27.5225L10.5788 25.3076L6.69594 23.0928V27.5225Z" fill="white"/>
</svg>
